<svg width="669" height="371" viewBox="0 0 669 371" fill="none" xmlns="http://www.w3.org/2000/svg">
<path d="M0 0L62 72.4498V164V287.494L0 328V0Z" fill="#D9D9D9"/>
<path d="M312 0L249.932 72H171.5H65.7018L31 0H312Z" fill="#D9D9D9"/>
<path d="M669 0L606.932 46H528.5H422.702L388 0H669Z" fill="#D9D9D9"/>
<path d="M606 358L551.663 312H483H390.38L360 358H606Z" fill="#D9D9D9"/>
<path d="M373 219L435.068 173H513.5H619.298L574 212L373 219Z" fill="#D9D9D9"/>
<path d="M619 176L573 222.369V280.962V316.5L611 360L619 176Z" fill="#D9D9D9"/>
<path d="M373 8L420 49.5261V102V172.783L373 196V8Z" fill="#D9D9D9"/>
<path d="M0 371L62.0683 299H140.5H246.298L281 371H0Z" fill="#D9D9D9"/>
</svg>
