<svg width="1024" height="250" viewBox="0 0 1024 250" fill="none" xmlns="http://www.w3.org/2000/svg">
<rect width="1024" height="250" fill="#18182D"/>
<ellipse cx="450.5" cy="139" rx="65.5" ry="65" fill="#BA0003"/>
<rect x="589" y="42" width="228" height="64" rx="32" transform="rotate(33 589 42)" fill="#B1C105"/>
<path d="M869.7 83.0288C889.105 77.1879 907.789 94.0108 904.008 113.92L895.563 158.394C891.636 179.071 866.611 187.505 850.97 173.422L816.068 141.996C800.427 127.912 806.199 102.143 826.353 96.0765L869.7 83.0288Z" fill="#1010D7"/>
<rect width="344" height="250" fill="#18182A"/>
<rect x="344" width="680" height="250" fill="url(#paint0_linear_9_57)"/>
<path d="M72.1136 106L61.8182 71.0909H72.3864L77.1591 92.5682H77.4318L83.0909 71.0909H91.4091L97.0682 92.6364H97.3409L102.114 71.0909H112.682L102.386 106H93.3182L87.3864 86.5H87.1136L81.1818 106H72.1136ZM125.385 106.477C122.589 106.477 120.18 105.943 118.158 104.875C116.146 103.795 114.595 102.25 113.504 100.239C112.425 98.2159 111.885 95.7955 111.885 92.9773C111.885 90.2727 112.43 87.9091 113.521 85.8864C114.612 83.8636 116.152 82.2898 118.141 81.1648C120.129 80.0398 122.476 79.4773 125.18 79.4773C127.158 79.4773 128.947 79.7841 130.55 80.3977C132.152 81.0114 133.521 81.9034 134.658 83.0739C135.794 84.233 136.669 85.642 137.283 87.3011C137.896 88.9602 138.203 90.8295 138.203 92.9091V95.0909H114.817V89.9091H129.544C129.533 89.1591 129.339 88.5 128.964 87.9318C128.601 87.3523 128.107 86.9034 127.482 86.5852C126.868 86.2557 126.169 86.0909 125.385 86.0909C124.624 86.0909 123.925 86.2557 123.288 86.5852C122.652 86.9034 122.141 87.3466 121.754 87.9148C121.379 88.483 121.18 89.1477 121.158 89.9091V95.5C121.158 96.3409 121.334 97.0909 121.686 97.75C122.038 98.4091 122.544 98.9261 123.203 99.3011C123.862 99.6761 124.658 99.8636 125.589 99.8636C126.237 99.8636 126.828 99.7727 127.362 99.5909C127.908 99.4091 128.374 99.1477 128.76 98.8068C129.146 98.4545 129.43 98.0341 129.612 97.5455H138.203C137.908 99.3636 137.209 100.943 136.107 102.284C135.004 103.614 133.544 104.648 131.726 105.386C129.919 106.114 127.805 106.477 125.385 106.477ZM158.901 106.409C157.23 106.409 155.753 106.136 154.469 105.591C153.196 105.034 152.196 104.193 151.469 103.068C150.741 101.943 150.378 100.511 150.378 98.7727C150.378 97.3409 150.622 96.1193 151.111 95.108C151.599 94.0852 152.281 93.25 153.156 92.6023C154.031 91.9545 155.048 91.4602 156.207 91.1193C157.378 90.7784 158.639 90.5568 159.991 90.4545C161.457 90.3409 162.634 90.2045 163.52 90.0455C164.418 89.875 165.065 89.642 165.463 89.3466C165.861 89.0398 166.06 88.6364 166.06 88.1364V88.0682C166.06 87.3864 165.798 86.8636 165.276 86.5C164.753 86.1364 164.082 85.9545 163.264 85.9545C162.366 85.9545 161.634 86.1534 161.065 86.5511C160.509 86.9375 160.173 87.5341 160.06 88.3409H151.401C151.514 86.75 152.02 85.2841 152.918 83.9432C153.827 82.5909 155.151 81.5114 156.889 80.7045C158.628 79.8864 160.798 79.4773 163.401 79.4773C165.276 79.4773 166.957 79.6989 168.446 80.142C169.935 80.5739 171.202 81.1818 172.247 81.9659C173.293 82.7386 174.088 83.6477 174.634 84.6932C175.19 85.7273 175.469 86.8523 175.469 88.0682V106H166.673V102.318H166.469C165.946 103.295 165.31 104.085 164.56 104.688C163.821 105.29 162.974 105.727 162.02 106C161.077 106.273 160.037 106.409 158.901 106.409ZM161.969 100.477C162.685 100.477 163.355 100.33 163.98 100.034C164.616 99.7386 165.134 99.3125 165.531 98.7557C165.929 98.1989 166.128 97.5227 166.128 96.7273V94.5455C165.878 94.6477 165.611 94.7443 165.327 94.8352C165.054 94.9261 164.759 95.0114 164.44 95.0909C164.134 95.1705 163.804 95.2443 163.452 95.3125C163.111 95.3807 162.753 95.4432 162.378 95.5C161.651 95.6136 161.054 95.8011 160.588 96.0625C160.134 96.3125 159.793 96.625 159.565 97C159.349 97.3636 159.241 97.7727 159.241 98.2273C159.241 98.9545 159.497 99.5114 160.009 99.8977C160.52 100.284 161.173 100.477 161.969 100.477ZM179.964 106V79.8182H189.101V84.7955H189.374C189.851 82.9545 190.607 81.608 191.641 80.7557C192.686 79.9034 193.908 79.4773 195.305 79.4773C195.714 79.4773 196.118 79.5114 196.516 79.5795C196.925 79.6364 197.317 79.7216 197.692 79.8352V87.8636C197.226 87.7045 196.652 87.5852 195.97 87.5057C195.288 87.4261 194.703 87.3864 194.214 87.3864C193.294 87.3864 192.464 87.5966 191.726 88.017C190.999 88.4261 190.425 89.0057 190.004 89.7557C189.584 90.4943 189.374 91.3636 189.374 92.3636V106H179.964ZM211.822 106.477C209.027 106.477 206.618 105.943 204.595 104.875C202.584 103.795 201.033 102.25 199.942 100.239C198.862 98.2159 198.322 95.7955 198.322 92.9773C198.322 90.2727 198.868 87.9091 199.959 85.8864C201.05 83.8636 202.589 82.2898 204.578 81.1648C206.567 80.0398 208.913 79.4773 211.618 79.4773C213.595 79.4773 215.385 79.7841 216.987 80.3977C218.589 81.0114 219.959 81.9034 221.095 83.0739C222.232 84.233 223.107 85.642 223.72 87.3011C224.334 88.9602 224.641 90.8295 224.641 92.9091V95.0909H201.254V89.9091H215.982C215.97 89.1591 215.777 88.5 215.402 87.9318C215.038 87.3523 214.544 86.9034 213.919 86.5852C213.305 86.2557 212.607 86.0909 211.822 86.0909C211.061 86.0909 210.362 86.2557 209.726 86.5852C209.089 86.9034 208.578 87.3466 208.192 87.9148C207.817 88.483 207.618 89.1477 207.595 89.9091V95.5C207.595 96.3409 207.771 97.0909 208.124 97.75C208.476 98.4091 208.982 98.9261 209.641 99.3011C210.3 99.6761 211.095 99.8636 212.027 99.8636C212.675 99.8636 213.266 99.7727 213.8 99.5909C214.345 99.4091 214.811 99.1477 215.197 98.8068C215.584 98.4545 215.868 98.0341 216.05 97.5455H224.641C224.345 99.3636 223.646 100.943 222.544 102.284C221.442 103.614 219.982 104.648 218.163 105.386C216.357 106.114 214.243 106.477 211.822 106.477ZM237.906 106V71.0909H247.384V84.7273H259.929V71.0909H269.406V106H259.929V92.3636H247.384V106H237.906ZM274.043 106V79.8182H283.452V106H274.043ZM278.747 77.0909C277.474 77.0909 276.384 76.6705 275.474 75.8295C274.565 74.9886 274.111 73.9773 274.111 72.7955C274.111 71.6136 274.565 70.6023 275.474 69.7614C276.384 68.9205 277.474 68.5 278.747 68.5C280.031 68.5 281.122 68.9205 282.02 69.7614C282.929 70.6023 283.384 71.6136 283.384 72.7955C283.384 73.9773 282.929 74.9886 282.02 75.8295C281.122 76.6705 280.031 77.0909 278.747 77.0909ZM288.246 106V79.8182H297.382V84.7955H297.655C298.132 82.9545 298.888 81.608 299.922 80.7557C300.967 79.9034 302.189 79.4773 303.587 79.4773C303.996 79.4773 304.399 79.5114 304.797 79.5795C305.206 79.6364 305.598 79.7216 305.973 79.8352V87.8636C305.507 87.7045 304.933 87.5852 304.251 87.5057C303.57 87.4261 302.984 87.3864 302.496 87.3864C301.575 87.3864 300.746 87.5966 300.007 88.017C299.28 88.4261 298.706 89.0057 298.286 89.7557C297.865 90.4943 297.655 91.3636 297.655 92.3636V106H288.246ZM309.058 106V79.8182H318.467V106H309.058ZM313.763 77.0909C312.49 77.0909 311.399 76.6705 310.49 75.8295C309.581 74.9886 309.126 73.9773 309.126 72.7955C309.126 71.6136 309.581 70.6023 310.49 69.7614C311.399 68.9205 312.49 68.5 313.763 68.5C315.047 68.5 316.138 68.9205 317.036 69.7614C317.945 70.6023 318.399 71.6136 318.399 72.7955C318.399 73.9773 317.945 74.9886 317.036 75.8295C316.138 76.6705 315.047 77.0909 313.763 77.0909ZM332.67 91.2727V106H323.261V79.8182H332.193V84.7955H332.466C333.034 83.1364 334.034 81.8352 335.466 80.892C336.909 79.9489 338.591 79.4773 340.511 79.4773C342.364 79.4773 343.972 79.9034 345.335 80.7557C346.71 81.5966 347.773 82.7557 348.523 84.233C349.284 85.7102 349.659 87.3977 349.648 89.2955V106H340.239V91.2727C340.25 89.9773 339.92 88.9602 339.25 88.2216C338.591 87.483 337.67 87.1136 336.489 87.1136C335.716 87.1136 335.04 87.2841 334.46 87.625C333.892 87.9545 333.455 88.4318 333.148 89.0568C332.841 89.6705 332.682 90.4091 332.67 91.2727ZM366.906 116.364C364.281 116.364 362.031 115.989 360.156 115.239C358.293 114.5 356.844 113.477 355.81 112.17C354.787 110.875 354.213 109.386 354.088 107.705H363.156C363.247 108.261 363.474 108.71 363.838 109.051C364.202 109.392 364.668 109.636 365.236 109.784C365.815 109.943 366.463 110.023 367.179 110.023C368.395 110.023 369.401 109.727 370.196 109.136C371.003 108.545 371.406 107.477 371.406 105.932V101.5H371.134C370.793 102.386 370.27 103.142 369.565 103.767C368.861 104.381 368.014 104.852 367.026 105.182C366.037 105.5 364.952 105.659 363.77 105.659C361.906 105.659 360.19 105.227 358.622 104.364C357.065 103.5 355.815 102.131 354.872 100.256C353.94 98.3807 353.474 95.9318 353.474 92.9091C353.474 89.75 353.963 87.1818 354.94 85.2045C355.929 83.2273 357.202 81.7784 358.759 80.858C360.327 79.9375 361.974 79.4773 363.702 79.4773C364.997 79.4773 366.134 79.7045 367.111 80.1591C368.088 80.6023 368.906 81.1989 369.565 81.9489C370.224 82.6875 370.724 83.5 371.065 84.3864H371.27V79.8182H380.679V105.932C380.679 108.148 380.105 110.028 378.957 111.574C377.821 113.131 376.219 114.318 374.151 115.136C372.082 115.955 369.668 116.364 366.906 116.364ZM367.247 98.9773C368.111 98.9773 368.849 98.7386 369.463 98.2614C370.088 97.7727 370.565 97.0795 370.895 96.1818C371.236 95.2727 371.406 94.1818 371.406 92.9091C371.406 91.6136 371.236 90.5057 370.895 89.5852C370.565 88.6534 370.088 87.9432 369.463 87.4545C368.849 86.9545 368.111 86.7045 367.247 86.7045C366.384 86.7045 365.645 86.9545 365.031 87.4545C364.429 87.9432 363.963 88.6534 363.634 89.5852C363.315 90.5057 363.156 91.6136 363.156 92.9091C363.156 94.2045 363.315 95.3068 363.634 96.2159C363.963 97.1136 364.429 97.8011 365.031 98.2784C365.645 98.7443 366.384 98.9773 367.247 98.9773Z" fill="white"/>
<path d="M68.3295 129.455H70.0909V139.852C70.0909 140.78 69.9205 141.569 69.5795 142.217C69.2386 142.866 68.758 143.358 68.1378 143.695C67.5175 144.031 66.786 144.199 65.9432 144.199C65.1477 144.199 64.4399 144.054 63.8196 143.766C63.1993 143.472 62.7116 143.055 62.3565 142.516C62.0014 141.976 61.8239 141.334 61.8239 140.591H63.5568C63.5568 141.003 63.6586 141.363 63.8622 141.67C64.0705 141.973 64.3546 142.21 64.7145 142.381C65.0743 142.551 65.4839 142.636 65.9432 142.636C66.4498 142.636 66.8807 142.53 67.2358 142.317C67.5909 142.104 67.8608 141.791 68.0455 141.379C68.2348 140.963 68.3295 140.454 68.3295 139.852V129.455ZM77.8253 144.227C76.8404 144.227 75.9763 143.993 75.233 143.524C74.4943 143.055 73.9167 142.4 73.5 141.557C73.0881 140.714 72.8821 139.729 72.8821 138.602C72.8821 137.466 73.0881 136.474 73.5 135.626C73.9167 134.779 74.4943 134.121 75.233 133.652C75.9763 133.183 76.8404 132.949 77.8253 132.949C78.8101 132.949 79.6719 133.183 80.4105 133.652C81.1539 134.121 81.7315 134.779 82.1435 135.626C82.5601 136.474 82.7685 137.466 82.7685 138.602C82.7685 139.729 82.5601 140.714 82.1435 141.557C81.7315 142.4 81.1539 143.055 80.4105 143.524C79.6719 143.993 78.8101 144.227 77.8253 144.227ZM77.8253 142.722C78.5734 142.722 79.1889 142.53 79.6719 142.146C80.1548 141.763 80.5123 141.259 80.7443 140.634C80.9763 140.009 81.0923 139.331 81.0923 138.602C81.0923 137.873 80.9763 137.194 80.7443 136.564C80.5123 135.934 80.1548 135.425 79.6719 135.037C79.1889 134.649 78.5734 134.455 77.8253 134.455C77.0772 134.455 76.4616 134.649 75.9787 135.037C75.4957 135.425 75.1383 135.934 74.9062 136.564C74.6742 137.194 74.5582 137.873 74.5582 138.602C74.5582 139.331 74.6742 140.009 74.9062 140.634C75.1383 141.259 75.4957 141.763 75.9787 142.146C76.4616 142.53 77.0772 142.722 77.8253 142.722ZM85.3271 144V133.091H87.0032V144H85.3271ZM86.1793 131.273C85.8526 131.273 85.5709 131.161 85.3342 130.939C85.1022 130.716 84.9862 130.449 84.9862 130.136C84.9862 129.824 85.1022 129.556 85.3342 129.334C85.5709 129.111 85.8526 129 86.1793 129C86.506 129 86.7854 129.111 87.0174 129.334C87.2541 129.556 87.3725 129.824 87.3725 130.136C87.3725 130.449 87.2541 130.716 87.0174 130.939C86.7854 131.161 86.506 131.273 86.1793 131.273ZM91.7493 137.438V144H90.0732V133.091H91.6925V134.795H91.8345C92.0902 134.241 92.4785 133.796 92.9993 133.46C93.5201 133.119 94.1925 132.949 95.0163 132.949C95.755 132.949 96.4013 133.1 96.9553 133.403C97.5092 133.702 97.9401 134.156 98.2479 134.767C98.5556 135.373 98.7095 136.14 98.7095 137.068V144H97.0334V137.182C97.0334 136.325 96.8108 135.657 96.3658 135.179C95.9207 134.696 95.3099 134.455 94.5334 134.455C93.9983 134.455 93.5201 134.571 93.0987 134.803C92.6821 135.035 92.353 135.373 92.1115 135.818C91.87 136.263 91.7493 136.803 91.7493 137.438ZM114.272 139.54V133.091H115.949V144H114.272V142.153H114.159C113.903 142.707 113.505 143.179 112.966 143.567C112.426 143.95 111.744 144.142 110.92 144.142C110.238 144.142 109.632 143.993 109.102 143.695C108.572 143.392 108.155 142.937 107.852 142.331C107.549 141.72 107.397 140.951 107.397 140.023V133.091H109.074V139.909C109.074 140.705 109.296 141.339 109.741 141.812C110.191 142.286 110.764 142.523 111.46 142.523C111.877 142.523 112.3 142.416 112.731 142.203C113.167 141.99 113.531 141.663 113.825 141.223C114.123 140.783 114.272 140.222 114.272 139.54ZM126.746 135.534L125.24 135.96C125.145 135.709 125.006 135.465 124.821 135.229C124.641 134.987 124.395 134.788 124.082 134.632C123.77 134.476 123.37 134.398 122.882 134.398C122.214 134.398 121.658 134.552 121.213 134.859C120.773 135.162 120.553 135.548 120.553 136.017C120.553 136.434 120.704 136.763 121.007 137.004C121.31 137.246 121.784 137.447 122.428 137.608L124.047 138.006C125.022 138.242 125.749 138.605 126.227 139.092C126.705 139.575 126.945 140.198 126.945 140.96C126.945 141.585 126.765 142.144 126.405 142.636C126.05 143.129 125.553 143.517 124.913 143.801C124.274 144.085 123.531 144.227 122.683 144.227C121.571 144.227 120.65 143.986 119.92 143.503C119.191 143.02 118.73 142.314 118.536 141.386L120.126 140.989C120.278 141.576 120.564 142.016 120.986 142.31C121.412 142.603 121.968 142.75 122.655 142.75C123.436 142.75 124.056 142.584 124.516 142.253C124.98 141.917 125.212 141.514 125.212 141.045C125.212 140.667 125.079 140.349 124.814 140.094C124.549 139.833 124.142 139.639 123.592 139.511L121.774 139.085C120.775 138.848 120.041 138.482 119.572 137.984C119.108 137.482 118.876 136.855 118.876 136.102C118.876 135.487 119.049 134.942 119.395 134.469C119.745 133.995 120.221 133.624 120.822 133.354C121.429 133.084 122.115 132.949 122.882 132.949C123.962 132.949 124.809 133.186 125.425 133.659C126.045 134.133 126.485 134.758 126.746 135.534ZM139.525 144.227C138.54 144.227 137.676 143.993 136.932 143.524C136.194 143.055 135.616 142.4 135.199 141.557C134.787 140.714 134.581 139.729 134.581 138.602C134.581 137.466 134.787 136.474 135.199 135.626C135.616 134.779 136.194 134.121 136.932 133.652C137.676 133.183 138.54 132.949 139.525 132.949C140.509 132.949 141.371 133.183 142.11 133.652C142.853 134.121 143.431 134.779 143.843 135.626C144.259 136.474 144.468 137.466 144.468 138.602C144.468 139.729 144.259 140.714 143.843 141.557C143.431 142.4 142.853 143.055 142.11 143.524C141.371 143.993 140.509 144.227 139.525 144.227ZM139.525 142.722C140.273 142.722 140.888 142.53 141.371 142.146C141.854 141.763 142.212 141.259 142.444 140.634C142.676 140.009 142.792 139.331 142.792 138.602C142.792 137.873 142.676 137.194 142.444 136.564C142.212 135.934 141.854 135.425 141.371 135.037C140.888 134.649 140.273 134.455 139.525 134.455C138.776 134.455 138.161 134.649 137.678 135.037C137.195 135.425 136.837 135.934 136.605 136.564C136.373 137.194 136.257 137.873 136.257 138.602C136.257 139.331 136.373 140.009 136.605 140.634C136.837 141.259 137.195 141.763 137.678 142.146C138.161 142.53 138.776 142.722 139.525 142.722ZM148.702 137.438V144H147.026V133.091H148.646V134.795H148.788C149.043 134.241 149.432 133.796 149.952 133.46C150.473 133.119 151.146 132.949 151.969 132.949C152.708 132.949 153.354 133.1 153.908 133.403C154.462 133.702 154.893 134.156 155.201 134.767C155.509 135.373 155.663 136.14 155.663 137.068V144H153.987V137.182C153.987 136.325 153.764 135.657 153.319 135.179C152.874 134.696 152.263 134.455 151.487 134.455C150.951 134.455 150.473 134.571 150.052 134.803C149.635 135.035 149.306 135.373 149.065 135.818C148.823 136.263 148.702 136.803 148.702 137.438ZM164.35 144V133.091H165.97V134.795H166.112C166.339 134.213 166.706 133.761 167.213 133.439C167.719 133.112 168.328 132.949 169.038 132.949C169.758 132.949 170.357 133.112 170.835 133.439C171.318 133.761 171.694 134.213 171.964 134.795H172.078C172.357 134.232 172.776 133.785 173.335 133.453C173.894 133.117 174.564 132.949 175.345 132.949C176.32 132.949 177.118 133.254 177.738 133.865C178.359 134.471 178.669 135.416 178.669 136.699V144H176.993V136.699C176.993 135.894 176.772 135.319 176.332 134.973C175.892 134.627 175.373 134.455 174.777 134.455C174.01 134.455 173.415 134.687 172.994 135.151C172.573 135.61 172.362 136.192 172.362 136.898V144H170.657V136.528C170.657 135.908 170.456 135.409 170.054 135.03C169.651 134.646 169.133 134.455 168.498 134.455C168.063 134.455 167.655 134.571 167.277 134.803C166.903 135.035 166.6 135.357 166.368 135.768C166.14 136.176 166.027 136.647 166.027 137.182V144H164.35ZM184.944 144.256C184.252 144.256 183.625 144.125 183.061 143.865C182.498 143.6 182.051 143.219 181.719 142.722C181.388 142.22 181.222 141.614 181.222 140.903C181.222 140.278 181.345 139.772 181.591 139.384C181.837 138.991 182.167 138.683 182.578 138.46C182.99 138.238 183.445 138.072 183.942 137.963C184.444 137.849 184.948 137.759 185.455 137.693C186.118 137.608 186.655 137.544 187.067 137.501C187.484 137.454 187.787 137.376 187.976 137.267C188.17 137.158 188.267 136.969 188.267 136.699V136.642C188.267 135.941 188.076 135.397 187.692 135.009C187.313 134.62 186.738 134.426 185.966 134.426C185.166 134.426 184.539 134.601 184.084 134.952C183.63 135.302 183.31 135.676 183.125 136.074L181.534 135.506C181.819 134.843 182.197 134.327 182.671 133.957C183.149 133.583 183.67 133.323 184.233 133.176C184.801 133.025 185.36 132.949 185.909 132.949C186.26 132.949 186.662 132.991 187.117 133.077C187.576 133.157 188.019 133.325 188.445 133.581C188.876 133.837 189.233 134.223 189.517 134.739C189.801 135.255 189.944 135.946 189.944 136.812V144H188.267V142.523H188.182C188.069 142.759 187.879 143.013 187.614 143.283C187.349 143.553 186.996 143.782 186.556 143.972C186.115 144.161 185.578 144.256 184.944 144.256ZM185.199 142.75C185.862 142.75 186.421 142.62 186.875 142.359C187.335 142.099 187.68 141.763 187.912 141.351C188.149 140.939 188.267 140.506 188.267 140.051V138.517C188.196 138.602 188.04 138.68 187.799 138.751C187.562 138.818 187.287 138.877 186.975 138.929C186.667 138.976 186.366 139.019 186.073 139.057C185.784 139.09 185.55 139.118 185.37 139.142C184.934 139.199 184.527 139.291 184.148 139.419C183.774 139.542 183.471 139.729 183.239 139.98C183.012 140.226 182.898 140.562 182.898 140.989C182.898 141.571 183.114 142.011 183.544 142.31C183.98 142.603 184.532 142.75 185.199 142.75ZM193.003 144V133.091H194.679V144H193.003ZM193.855 131.273C193.528 131.273 193.247 131.161 193.01 130.939C192.778 130.716 192.662 130.449 192.662 130.136C192.662 129.824 192.778 129.556 193.01 129.334C193.247 129.111 193.528 129 193.855 129C194.182 129 194.461 129.111 194.693 129.334C194.93 129.556 195.048 129.824 195.048 130.136C195.048 130.449 194.93 130.716 194.693 130.939C194.461 131.161 194.182 131.273 193.855 131.273ZM199.425 137.438V144H197.749V133.091H199.368V134.795H199.51C199.766 134.241 200.154 133.796 200.675 133.46C201.196 133.119 201.868 132.949 202.692 132.949C203.431 132.949 204.077 133.1 204.631 133.403C205.185 133.702 205.616 134.156 205.924 134.767C206.231 135.373 206.385 136.14 206.385 137.068V144H204.709V137.182C204.709 136.325 204.487 135.657 204.042 135.179C203.596 134.696 202.986 134.455 202.209 134.455C201.674 134.455 201.196 134.571 200.775 134.803C200.358 135.035 200.029 135.373 199.787 135.818C199.546 136.263 199.425 136.803 199.425 137.438ZM214.192 133.091V134.511H208.539V133.091H214.192ZM210.187 130.477H211.863V140.875C211.863 141.348 211.932 141.704 212.069 141.94C212.211 142.172 212.391 142.329 212.609 142.409C212.831 142.485 213.066 142.523 213.312 142.523C213.496 142.523 213.648 142.513 213.766 142.494C213.885 142.471 213.979 142.452 214.05 142.438L214.391 143.943C214.278 143.986 214.119 144.028 213.915 144.071C213.712 144.118 213.454 144.142 213.141 144.142C212.668 144.142 212.204 144.04 211.749 143.837C211.299 143.633 210.925 143.323 210.627 142.906C210.334 142.49 210.187 141.964 210.187 141.33V130.477ZM219.924 144.256C219.233 144.256 218.605 144.125 218.042 143.865C217.478 143.6 217.031 143.219 216.7 142.722C216.368 142.22 216.202 141.614 216.202 140.903C216.202 140.278 216.326 139.772 216.572 139.384C216.818 138.991 217.147 138.683 217.559 138.46C217.971 138.238 218.425 138.072 218.923 137.963C219.424 137.849 219.929 137.759 220.435 137.693C221.098 137.608 221.636 137.544 222.048 137.501C222.464 137.454 222.767 137.376 222.957 137.267C223.151 137.158 223.248 136.969 223.248 136.699V136.642C223.248 135.941 223.056 135.397 222.673 135.009C222.294 134.62 221.719 134.426 220.947 134.426C220.147 134.426 219.519 134.601 219.065 134.952C218.61 135.302 218.29 135.676 218.106 136.074L216.515 135.506C216.799 134.843 217.178 134.327 217.651 133.957C218.129 133.583 218.65 133.323 219.214 133.176C219.782 133.025 220.341 132.949 220.89 132.949C221.24 132.949 221.643 132.991 222.097 133.077C222.557 133.157 222.999 133.325 223.425 133.581C223.856 133.837 224.214 134.223 224.498 134.739C224.782 135.255 224.924 135.946 224.924 136.812V144H223.248V142.523H223.163C223.049 142.759 222.86 143.013 222.594 143.283C222.329 143.553 221.977 143.782 221.536 143.972C221.096 144.161 220.558 144.256 219.924 144.256ZM220.18 142.75C220.843 142.75 221.401 142.62 221.856 142.359C222.315 142.099 222.661 141.763 222.893 141.351C223.129 140.939 223.248 140.506 223.248 140.051V138.517C223.177 138.602 223.021 138.68 222.779 138.751C222.542 138.818 222.268 138.877 221.955 138.929C221.647 138.976 221.347 139.019 221.053 139.057C220.764 139.09 220.53 139.118 220.35 139.142C219.915 139.199 219.507 139.291 219.129 139.419C218.754 139.542 218.451 139.729 218.219 139.98C217.992 140.226 217.879 140.562 217.879 140.989C217.879 141.571 218.094 142.011 218.525 142.31C218.96 142.603 219.512 142.75 220.18 142.75ZM227.983 144V133.091H229.659V144H227.983ZM228.836 131.273C228.509 131.273 228.227 131.161 227.99 130.939C227.758 130.716 227.642 130.449 227.642 130.136C227.642 129.824 227.758 129.556 227.99 129.334C228.227 129.111 228.509 129 228.836 129C229.162 129 229.442 129.111 229.674 129.334C229.91 129.556 230.029 129.824 230.029 130.136C230.029 130.449 229.91 130.716 229.674 130.939C229.442 131.161 229.162 131.273 228.836 131.273ZM234.406 137.438V144H232.729V133.091H234.349V134.795H234.491C234.746 134.241 235.135 133.796 235.656 133.46C236.176 133.119 236.849 132.949 237.673 132.949C238.411 132.949 239.058 133.1 239.612 133.403C240.165 133.702 240.596 134.156 240.904 134.767C241.212 135.373 241.366 136.14 241.366 137.068V144H239.69V137.182C239.69 136.325 239.467 135.657 239.022 135.179C238.577 134.696 237.966 134.455 237.19 134.455C236.655 134.455 236.176 134.571 235.755 134.803C235.338 135.035 235.009 135.373 234.768 135.818C234.526 136.263 234.406 136.803 234.406 137.438ZM244.429 144V133.091H246.105V144H244.429ZM245.281 131.273C244.954 131.273 244.672 131.161 244.436 130.939C244.204 130.716 244.088 130.449 244.088 130.136C244.088 129.824 244.204 129.556 244.436 129.334C244.672 129.111 244.954 129 245.281 129C245.608 129 245.887 129.111 246.119 129.334C246.356 129.556 246.474 129.824 246.474 130.136C246.474 130.449 246.356 130.716 246.119 130.939C245.887 131.161 245.608 131.273 245.281 131.273ZM250.851 137.438V144H249.175V133.091H250.794V134.795H250.936C251.192 134.241 251.58 133.796 252.101 133.46C252.622 133.119 253.294 132.949 254.118 132.949C254.857 132.949 255.503 133.1 256.057 133.403C256.611 133.702 257.042 134.156 257.349 134.767C257.657 135.373 257.811 136.14 257.811 137.068V144H256.135V137.182C256.135 136.325 255.912 135.657 255.467 135.179C255.022 134.696 254.411 134.455 253.635 134.455C253.1 134.455 252.622 134.571 252.2 134.803C251.784 135.035 251.455 135.373 251.213 135.818C250.972 136.263 250.851 136.803 250.851 137.438ZM265.277 148.318C264.468 148.318 263.772 148.214 263.189 148.006C262.607 147.802 262.122 147.532 261.733 147.196C261.35 146.865 261.044 146.509 260.817 146.131L262.152 145.193C262.304 145.392 262.496 145.619 262.728 145.875C262.96 146.135 263.277 146.36 263.679 146.55C264.087 146.744 264.619 146.841 265.277 146.841C266.158 146.841 266.885 146.628 267.458 146.202C268.031 145.776 268.317 145.108 268.317 144.199V141.983H268.175C268.052 142.182 267.877 142.428 267.65 142.722C267.427 143.01 267.105 143.268 266.684 143.496C266.267 143.718 265.703 143.83 264.993 143.83C264.113 143.83 263.322 143.621 262.621 143.205C261.925 142.788 261.373 142.182 260.966 141.386C260.564 140.591 260.363 139.625 260.363 138.489C260.363 137.371 260.559 136.398 260.952 135.57C261.345 134.736 261.892 134.092 262.593 133.638C263.293 133.179 264.103 132.949 265.022 132.949C265.732 132.949 266.295 133.067 266.712 133.304C267.133 133.536 267.455 133.801 267.678 134.099C267.905 134.393 268.08 134.634 268.203 134.824H268.374V133.091H269.993V144.312C269.993 145.25 269.78 146.012 269.354 146.599C268.933 147.191 268.364 147.625 267.65 147.899C266.939 148.179 266.149 148.318 265.277 148.318ZM265.221 142.324C265.893 142.324 266.461 142.17 266.925 141.862C267.389 141.554 267.742 141.112 267.983 140.534C268.225 139.956 268.346 139.265 268.346 138.46C268.346 137.674 268.227 136.981 267.99 136.379C267.754 135.778 267.403 135.307 266.939 134.966C266.475 134.625 265.902 134.455 265.221 134.455C264.51 134.455 263.918 134.634 263.445 134.994C262.976 135.354 262.623 135.837 262.387 136.443C262.155 137.049 262.039 137.722 262.039 138.46C262.039 139.218 262.157 139.888 262.394 140.47C262.635 141.048 262.99 141.502 263.459 141.834C263.933 142.161 264.52 142.324 265.221 142.324ZM283.431 133.091V134.511H277.777V133.091H283.431ZM279.425 130.477H281.101V140.875C281.101 141.348 281.17 141.704 281.307 141.94C281.449 142.172 281.629 142.329 281.847 142.409C282.069 142.485 282.304 142.523 282.55 142.523C282.735 142.523 282.886 142.513 283.005 142.494C283.123 142.471 283.218 142.452 283.289 142.438L283.63 143.943C283.516 143.986 283.357 144.028 283.154 144.071C282.95 144.118 282.692 144.142 282.38 144.142C281.906 144.142 281.442 144.04 280.988 143.837C280.538 143.633 280.164 143.323 279.865 142.906C279.572 142.49 279.425 141.964 279.425 141.33V130.477ZM287.863 137.438V144H286.186V129.455H287.863V134.795H288.005C288.26 134.232 288.644 133.785 289.155 133.453C289.671 133.117 290.358 132.949 291.215 132.949C291.958 132.949 292.609 133.098 293.168 133.396C293.727 133.69 294.16 134.142 294.468 134.753C294.78 135.359 294.936 136.131 294.936 137.068V144H293.26V137.182C293.26 136.315 293.035 135.645 292.586 135.172C292.141 134.694 291.523 134.455 290.732 134.455C290.183 134.455 289.69 134.571 289.255 134.803C288.824 135.035 288.483 135.373 288.232 135.818C287.986 136.263 287.863 136.803 287.863 137.438ZM302.577 144.227C301.526 144.227 300.619 143.995 299.857 143.531C299.099 143.062 298.514 142.409 298.102 141.571C297.695 140.728 297.491 139.748 297.491 138.631C297.491 137.513 297.695 136.528 298.102 135.676C298.514 134.819 299.087 134.152 299.821 133.673C300.56 133.19 301.421 132.949 302.406 132.949C302.974 132.949 303.536 133.044 304.089 133.233C304.643 133.422 305.148 133.73 305.602 134.156C306.057 134.578 306.419 135.136 306.689 135.832C306.959 136.528 307.094 137.385 307.094 138.403V139.114H298.685V137.665H305.389C305.389 137.049 305.266 136.5 305.02 136.017C304.778 135.534 304.433 135.153 303.983 134.874C303.538 134.594 303.012 134.455 302.406 134.455C301.739 134.455 301.161 134.62 300.673 134.952C300.19 135.278 299.819 135.705 299.558 136.23C299.298 136.756 299.168 137.319 299.168 137.92V138.886C299.168 139.71 299.31 140.409 299.594 140.982C299.883 141.55 300.283 141.983 300.794 142.281C301.305 142.575 301.9 142.722 302.577 142.722C303.017 142.722 303.415 142.66 303.77 142.537C304.13 142.409 304.44 142.22 304.7 141.969C304.961 141.713 305.162 141.396 305.304 141.017L306.923 141.472C306.753 142.021 306.466 142.504 306.064 142.92C305.661 143.332 305.164 143.654 304.572 143.886C303.981 144.114 303.315 144.227 302.577 144.227ZM319.7 144.227C318.678 144.227 317.797 143.986 317.058 143.503C316.32 143.02 315.751 142.355 315.354 141.507C314.956 140.66 314.757 139.691 314.757 138.602C314.757 137.494 314.961 136.517 315.368 135.669C315.78 134.817 316.353 134.152 317.087 133.673C317.825 133.19 318.687 132.949 319.672 132.949C320.439 132.949 321.13 133.091 321.746 133.375C322.361 133.659 322.866 134.057 323.259 134.568C323.652 135.08 323.895 135.676 323.99 136.358H322.314C322.186 135.861 321.902 135.42 321.462 135.037C321.026 134.649 320.439 134.455 319.7 134.455C319.047 134.455 318.474 134.625 317.982 134.966C317.494 135.302 317.113 135.778 316.838 136.393C316.568 137.004 316.433 137.722 316.433 138.545C316.433 139.388 316.566 140.122 316.831 140.747C317.101 141.372 317.48 141.857 317.967 142.203C318.46 142.549 319.037 142.722 319.7 142.722C320.136 142.722 320.531 142.646 320.886 142.494C321.241 142.343 321.542 142.125 321.788 141.841C322.035 141.557 322.21 141.216 322.314 140.818H323.99C323.895 141.462 323.661 142.042 323.287 142.558C322.918 143.07 322.428 143.477 321.817 143.78C321.211 144.078 320.505 144.227 319.7 144.227ZM330.872 144.227C329.887 144.227 329.023 143.993 328.28 143.524C327.541 143.055 326.964 142.4 326.547 141.557C326.135 140.714 325.929 139.729 325.929 138.602C325.929 137.466 326.135 136.474 326.547 135.626C326.964 134.779 327.541 134.121 328.28 133.652C329.023 133.183 329.887 132.949 330.872 132.949C331.857 132.949 332.719 133.183 333.457 133.652C334.201 134.121 334.778 134.779 335.19 135.626C335.607 136.474 335.815 137.466 335.815 138.602C335.815 139.729 335.607 140.714 335.19 141.557C334.778 142.4 334.201 143.055 333.457 143.524C332.719 143.993 331.857 144.227 330.872 144.227ZM330.872 142.722C331.62 142.722 332.236 142.53 332.719 142.146C333.202 141.763 333.559 141.259 333.791 140.634C334.023 140.009 334.139 139.331 334.139 138.602C334.139 137.873 334.023 137.194 333.791 136.564C333.559 135.934 333.202 135.425 332.719 135.037C332.236 134.649 331.62 134.455 330.872 134.455C330.124 134.455 329.509 134.649 329.026 135.037C328.543 135.425 328.185 135.934 327.953 136.564C327.721 137.194 327.605 137.873 327.605 138.602C327.605 139.331 327.721 140.009 327.953 140.634C328.185 141.259 328.543 141.763 329.026 142.146C329.509 142.53 330.124 142.722 330.872 142.722ZM340.05 137.438V144H338.374V133.091H339.993V134.795H340.135C340.391 134.241 340.779 133.796 341.3 133.46C341.821 133.119 342.493 132.949 343.317 132.949C344.056 132.949 344.702 133.1 345.256 133.403C345.81 133.702 346.241 134.156 346.549 134.767C346.856 135.373 347.01 136.14 347.01 137.068V144H345.334V137.182C345.334 136.325 345.112 135.657 344.667 135.179C344.221 134.696 343.611 134.455 342.834 134.455C342.299 134.455 341.821 134.571 341.4 134.803C340.983 135.035 340.654 135.373 340.412 135.818C340.171 136.263 340.05 136.803 340.05 137.438ZM354.931 133.091V134.511H349.05V133.091H354.931ZM350.812 144V131.585C350.812 130.96 350.959 130.439 351.252 130.023C351.546 129.606 351.927 129.294 352.396 129.085C352.864 128.877 353.359 128.773 353.88 128.773C354.292 128.773 354.628 128.806 354.888 128.872C355.149 128.938 355.343 129 355.471 129.057L354.988 130.506C354.903 130.477 354.784 130.442 354.633 130.399C354.486 130.357 354.292 130.335 354.05 130.335C353.496 130.335 353.096 130.475 352.85 130.754C352.609 131.034 352.488 131.443 352.488 131.983V144H350.812ZM357.28 144V133.091H358.956V144H357.28ZM358.132 131.273C357.806 131.273 357.524 131.161 357.287 130.939C357.055 130.716 356.939 130.449 356.939 130.136C356.939 129.824 357.055 129.556 357.287 129.334C357.524 129.111 357.806 129 358.132 129C358.459 129 358.739 129.111 358.971 129.334C359.207 129.556 359.326 129.824 359.326 130.136C359.326 130.449 359.207 130.716 358.971 130.939C358.739 131.161 358.459 131.273 358.132 131.273ZM366.146 144.227C365.237 144.227 364.434 143.998 363.738 143.538C363.042 143.074 362.497 142.421 362.104 141.578C361.711 140.731 361.515 139.729 361.515 138.574C361.515 137.428 361.711 136.434 362.104 135.591C362.497 134.748 363.044 134.097 363.745 133.638C364.446 133.179 365.255 132.949 366.174 132.949C366.884 132.949 367.445 133.067 367.857 133.304C368.274 133.536 368.591 133.801 368.809 134.099C369.031 134.393 369.204 134.634 369.327 134.824H369.469V129.455H371.146V144H369.526V142.324H369.327C369.204 142.523 369.029 142.774 368.802 143.077C368.575 143.375 368.25 143.643 367.829 143.879C367.407 144.111 366.846 144.227 366.146 144.227ZM366.373 142.722C367.045 142.722 367.613 142.546 368.077 142.196C368.541 141.841 368.894 141.351 369.136 140.726C369.377 140.096 369.498 139.369 369.498 138.545C369.498 137.731 369.379 137.018 369.143 136.408C368.906 135.792 368.556 135.314 368.092 134.973C367.628 134.627 367.055 134.455 366.373 134.455C365.663 134.455 365.071 134.637 364.597 135.001C364.129 135.361 363.776 135.851 363.539 136.472C363.307 137.087 363.191 137.778 363.191 138.545C363.191 139.322 363.309 140.027 363.546 140.662C363.788 141.292 364.143 141.794 364.612 142.168C365.085 142.537 365.672 142.722 366.373 142.722ZM379.022 144.227C377.971 144.227 377.064 143.995 376.302 143.531C375.544 143.062 374.96 142.409 374.548 141.571C374.14 140.728 373.937 139.748 373.937 138.631C373.937 137.513 374.14 136.528 374.548 135.676C374.96 134.819 375.532 134.152 376.266 133.673C377.005 133.19 377.867 132.949 378.852 132.949C379.42 132.949 379.981 133.044 380.535 133.233C381.089 133.422 381.593 133.73 382.048 134.156C382.502 134.578 382.864 135.136 383.134 135.832C383.404 136.528 383.539 137.385 383.539 138.403V139.114H375.13V137.665H381.835C381.835 137.049 381.711 136.5 381.465 136.017C381.224 135.534 380.878 135.153 380.428 134.874C379.983 134.594 379.458 134.455 378.852 134.455C378.184 134.455 377.606 134.62 377.119 134.952C376.636 135.278 376.264 135.705 376.004 136.23C375.743 136.756 375.613 137.319 375.613 137.92V138.886C375.613 139.71 375.755 140.409 376.039 140.982C376.328 141.55 376.728 141.983 377.239 142.281C377.751 142.575 378.345 142.722 379.022 142.722C379.462 142.722 379.86 142.66 380.215 142.537C380.575 142.409 380.885 142.22 381.146 141.969C381.406 141.713 381.607 141.396 381.749 141.017L383.369 141.472C383.198 142.021 382.912 142.504 382.509 142.92C382.107 143.332 381.61 143.654 381.018 143.886C380.426 144.114 379.761 144.227 379.022 144.227ZM387.765 137.438V144H386.089V133.091H387.708V134.795H387.85C388.106 134.241 388.494 133.796 389.015 133.46C389.536 133.119 390.208 132.949 391.032 132.949C391.771 132.949 392.417 133.1 392.971 133.403C393.525 133.702 393.956 134.156 394.263 134.767C394.571 135.373 394.725 136.14 394.725 137.068V144H393.049V137.182C393.049 136.325 392.826 135.657 392.381 135.179C391.936 134.696 391.326 134.455 390.549 134.455C390.014 134.455 389.536 134.571 389.114 134.803C388.698 135.035 388.369 135.373 388.127 135.818C387.886 136.263 387.765 136.803 387.765 137.438ZM402.532 133.091V134.511H396.879V133.091H402.532ZM398.527 130.477H400.203V140.875C400.203 141.348 400.271 141.704 400.409 141.94C400.551 142.172 400.731 142.329 400.949 142.409C401.171 142.485 401.405 142.523 401.652 142.523C401.836 142.523 401.988 142.513 402.106 142.494C402.225 142.471 402.319 142.452 402.39 142.438L402.731 143.943C402.618 143.986 402.459 144.028 402.255 144.071C402.052 144.118 401.794 144.142 401.481 144.142C401.008 144.142 400.544 144.04 400.089 143.837C399.639 143.633 399.265 143.323 398.967 142.906C398.673 142.49 398.527 141.964 398.527 141.33V130.477ZM405.054 144V133.091H406.73V144H405.054ZM405.906 131.273C405.579 131.273 405.297 131.161 405.061 130.939C404.829 130.716 404.713 130.449 404.713 130.136C404.713 129.824 404.829 129.556 405.061 129.334C405.297 129.111 405.579 129 405.906 129C406.233 129 406.512 129.111 406.744 129.334C406.981 129.556 407.099 129.824 407.099 130.136C407.099 130.449 406.981 130.716 406.744 130.939C406.512 131.161 406.233 131.273 405.906 131.273ZM413.01 144.256C412.319 144.256 411.691 144.125 411.128 143.865C410.564 143.6 410.117 143.219 409.786 142.722C409.454 142.22 409.288 141.614 409.288 140.903C409.288 140.278 409.411 139.772 409.658 139.384C409.904 138.991 410.233 138.683 410.645 138.46C411.057 138.238 411.511 138.072 412.009 137.963C412.51 137.849 413.015 137.759 413.521 137.693C414.184 137.608 414.722 137.544 415.134 137.501C415.55 137.454 415.853 137.376 416.043 137.267C416.237 137.158 416.334 136.969 416.334 136.699V136.642C416.334 135.941 416.142 135.397 415.759 135.009C415.38 134.62 414.804 134.426 414.033 134.426C413.232 134.426 412.605 134.601 412.151 134.952C411.696 135.302 411.376 135.676 411.192 136.074L409.601 135.506C409.885 134.843 410.264 134.327 410.737 133.957C411.215 133.583 411.736 133.323 412.3 133.176C412.868 133.025 413.427 132.949 413.976 132.949C414.326 132.949 414.729 132.991 415.183 133.077C415.643 133.157 416.085 133.325 416.511 133.581C416.942 133.837 417.3 134.223 417.584 134.739C417.868 135.255 418.01 135.946 418.01 136.812V144H416.334V142.523H416.249C416.135 142.759 415.946 143.013 415.68 143.283C415.415 143.553 415.063 143.782 414.622 143.972C414.182 144.161 413.644 144.256 413.01 144.256ZM413.266 142.75C413.929 142.75 414.487 142.62 414.942 142.359C415.401 142.099 415.747 141.763 415.979 141.351C416.215 140.939 416.334 140.506 416.334 140.051V138.517C416.263 138.602 416.107 138.68 415.865 138.751C415.628 138.818 415.354 138.877 415.041 138.929C414.733 138.976 414.433 139.019 414.139 139.057C413.85 139.09 413.616 139.118 413.436 139.142C413 139.199 412.593 139.291 412.214 139.419C411.84 139.542 411.537 139.729 411.305 139.98C411.078 140.226 410.964 140.562 410.964 140.989C410.964 141.571 411.18 142.011 411.611 142.31C412.046 142.603 412.598 142.75 413.266 142.75ZM422.745 129.455V144H421.069V129.455H422.745ZM425.815 144V133.091H427.491V144H425.815ZM426.668 131.273C426.341 131.273 426.059 131.161 425.822 130.939C425.59 130.716 425.474 130.449 425.474 130.136C425.474 129.824 425.59 129.556 425.822 129.334C426.059 129.111 426.341 129 426.668 129C426.994 129 427.274 129.111 427.506 129.334C427.742 129.556 427.861 129.824 427.861 130.136C427.861 130.449 427.742 130.716 427.506 130.939C427.274 131.161 426.994 131.273 426.668 131.273ZM435.306 133.091V134.511H429.652V133.091H435.306ZM431.3 130.477H432.976V140.875C432.976 141.348 433.045 141.704 433.182 141.94C433.324 142.172 433.504 142.329 433.722 142.409C433.944 142.485 434.179 142.523 434.425 142.523C434.61 142.523 434.761 142.513 434.88 142.494C434.998 142.471 435.093 142.452 435.164 142.438L435.505 143.943C435.391 143.986 435.232 144.028 435.029 144.071C434.825 144.118 434.567 144.142 434.255 144.142C433.781 144.142 433.317 144.04 432.863 143.837C432.413 143.633 432.039 143.323 431.74 142.906C431.447 142.49 431.3 141.964 431.3 141.33V130.477ZM438.907 148.091C438.623 148.091 438.369 148.067 438.147 148.02C437.924 147.977 437.77 147.935 437.685 147.892L438.111 146.415C438.518 146.519 438.878 146.557 439.191 146.528C439.503 146.5 439.78 146.36 440.022 146.109C440.268 145.863 440.493 145.463 440.696 144.909L441.009 144.057L436.975 133.091H438.793L441.804 141.784H441.918L444.929 133.091H446.748L442.117 145.591C441.908 146.154 441.65 146.621 441.343 146.99C441.035 147.364 440.677 147.641 440.27 147.821C439.868 148.001 439.413 148.091 438.907 148.091ZM450.776 142.011L450.663 142.778C450.582 143.318 450.459 143.896 450.293 144.511C450.132 145.127 449.964 145.707 449.789 146.251C449.614 146.796 449.469 147.229 449.356 147.551H448.077C448.139 147.248 448.219 146.848 448.319 146.351C448.418 145.854 448.518 145.297 448.617 144.682C448.721 144.071 448.807 143.446 448.873 142.807L448.958 142.011H450.776ZM62.5341 168V157.091H64.2102V168H62.5341ZM63.3864 155.273C63.0597 155.273 62.7779 155.161 62.5412 154.939C62.3092 154.716 62.1932 154.449 62.1932 154.136C62.1932 153.824 62.3092 153.556 62.5412 153.334C62.7779 153.111 63.0597 153 63.3864 153C63.7131 153 63.9924 153.111 64.2244 153.334C64.4612 153.556 64.5795 153.824 64.5795 154.136C64.5795 154.449 64.4612 154.716 64.2244 154.939C63.9924 155.161 63.7131 155.273 63.3864 155.273ZM68.9563 161.438V168H67.2802V157.091H68.8995V158.795H69.0415C69.2972 158.241 69.6855 157.796 70.2063 157.46C70.7272 157.119 71.3995 156.949 72.2234 156.949C72.962 156.949 73.6083 157.1 74.1623 157.403C74.7163 157.702 75.1471 158.156 75.4549 158.767C75.7627 159.373 75.9165 160.14 75.9165 161.068V168H74.2404V161.182C74.2404 160.325 74.0179 159.657 73.5728 159.179C73.1277 158.696 72.5169 158.455 71.7404 158.455C71.2054 158.455 70.7272 158.571 70.3058 158.803C69.8891 159.035 69.56 159.373 69.3185 159.818C69.0771 160.263 68.9563 160.803 68.9563 161.438ZM83.7237 157.091V158.511H78.0703V157.091H83.7237ZM79.718 154.477H81.3942V164.875C81.3942 165.348 81.4628 165.704 81.6001 165.94C81.7422 166.172 81.9221 166.329 82.1399 166.409C82.3625 166.485 82.5968 166.523 82.843 166.523C83.0277 166.523 83.1792 166.513 83.2976 166.494C83.416 166.471 83.5107 166.452 83.5817 166.438L83.9226 167.943C83.8089 167.986 83.6503 168.028 83.4467 168.071C83.2431 168.118 82.9851 168.142 82.6726 168.142C82.1991 168.142 81.7351 168.04 81.2805 167.837C80.8307 167.633 80.4567 167.323 80.1584 166.906C79.8648 166.49 79.718 165.964 79.718 165.33V154.477ZM90.7017 168.227C89.6506 168.227 88.7438 167.995 87.9815 167.531C87.224 167.062 86.6392 166.409 86.2273 165.571C85.8201 164.728 85.6165 163.748 85.6165 162.631C85.6165 161.513 85.8201 160.528 86.2273 159.676C86.6392 158.819 87.2121 158.152 87.946 157.673C88.6847 157.19 89.5464 156.949 90.5312 156.949C91.0994 156.949 91.6605 157.044 92.2145 157.233C92.7685 157.422 93.2727 157.73 93.7273 158.156C94.1818 158.578 94.544 159.136 94.8139 159.832C95.0838 160.528 95.2188 161.385 95.2188 162.403V163.114H86.8097V161.665H93.5142C93.5142 161.049 93.3911 160.5 93.1449 160.017C92.9034 159.534 92.5578 159.153 92.108 158.874C91.6629 158.594 91.1373 158.455 90.5312 158.455C89.8636 158.455 89.286 158.62 88.7983 158.952C88.3153 159.278 87.9437 159.705 87.6832 160.23C87.4228 160.756 87.2926 161.319 87.2926 161.92V162.886C87.2926 163.71 87.4347 164.409 87.7188 164.982C88.0076 165.55 88.4077 165.983 88.919 166.281C89.4304 166.575 90.0246 166.722 90.7017 166.722C91.142 166.722 91.5398 166.66 91.8949 166.537C92.2547 166.409 92.5649 166.22 92.8253 165.969C93.0857 165.713 93.2869 165.396 93.429 165.017L95.0483 165.472C94.8778 166.021 94.5914 166.504 94.1889 166.92C93.7865 167.332 93.2893 167.654 92.6974 167.886C92.1056 168.114 91.4403 168.227 90.7017 168.227ZM102.172 172.318C101.362 172.318 100.666 172.214 100.084 172.006C99.5014 171.802 99.0161 171.532 98.6278 171.196C98.2443 170.865 97.9389 170.509 97.7116 170.131L99.0469 169.193C99.1984 169.392 99.3902 169.619 99.6222 169.875C99.8542 170.135 100.171 170.36 100.574 170.55C100.981 170.744 101.514 170.841 102.172 170.841C103.053 170.841 103.779 170.628 104.352 170.202C104.925 169.776 105.212 169.108 105.212 168.199V165.983H105.07C104.946 166.182 104.771 166.428 104.544 166.722C104.321 167.01 104 167.268 103.578 167.496C103.161 167.718 102.598 167.83 101.888 167.83C101.007 167.83 100.216 167.621 99.5156 167.205C98.8196 166.788 98.268 166.182 97.8608 165.386C97.4583 164.591 97.2571 163.625 97.2571 162.489C97.2571 161.371 97.4536 160.398 97.8466 159.57C98.2396 158.736 98.7865 158.092 99.4872 157.638C100.188 157.179 100.998 156.949 101.916 156.949C102.626 156.949 103.19 157.067 103.607 157.304C104.028 157.536 104.35 157.801 104.572 158.099C104.8 158.393 104.975 158.634 105.098 158.824H105.268V157.091H106.888V168.312C106.888 169.25 106.675 170.012 106.249 170.599C105.827 171.191 105.259 171.625 104.544 171.899C103.834 172.179 103.043 172.318 102.172 172.318ZM102.115 166.324C102.787 166.324 103.356 166.17 103.82 165.862C104.284 165.554 104.636 165.112 104.878 164.534C105.119 163.956 105.24 163.265 105.24 162.46C105.24 161.674 105.122 160.981 104.885 160.379C104.648 159.778 104.298 159.307 103.834 158.966C103.37 158.625 102.797 158.455 102.115 158.455C101.405 158.455 100.813 158.634 100.339 158.994C99.8707 159.354 99.518 159.837 99.2812 160.443C99.0492 161.049 98.9332 161.722 98.9332 162.46C98.9332 163.218 99.0516 163.888 99.2884 164.47C99.5298 165.048 99.8849 165.502 100.354 165.834C100.827 166.161 101.414 166.324 102.115 166.324ZM109.956 168V157.091H111.575V158.739H111.689C111.888 158.199 112.248 157.761 112.768 157.425C113.289 157.089 113.876 156.92 114.53 156.92C114.653 156.92 114.807 156.923 114.991 156.928C115.176 156.932 115.316 156.939 115.411 156.949V158.653C115.354 158.639 115.223 158.618 115.02 158.589C114.821 158.556 114.61 158.54 114.388 158.54C113.857 158.54 113.384 158.651 112.967 158.874C112.555 159.091 112.229 159.394 111.987 159.783C111.75 160.166 111.632 160.604 111.632 161.097V168H109.956ZM117.397 168V157.091H119.074V168H117.397ZM118.25 155.273C117.923 155.273 117.641 155.161 117.404 154.939C117.172 154.716 117.056 154.449 117.056 154.136C117.056 153.824 117.172 153.556 117.404 153.334C117.641 153.111 117.923 153 118.25 153C118.576 153 118.856 153.111 119.088 153.334C119.324 153.556 119.443 153.824 119.443 154.136C119.443 154.449 119.324 154.716 119.088 154.939C118.856 155.161 118.576 155.273 118.25 155.273ZM126.888 157.091V158.511H121.234V157.091H126.888ZM122.882 154.477H124.558V164.875C124.558 165.348 124.627 165.704 124.764 165.94C124.906 166.172 125.086 166.329 125.304 166.409C125.527 166.485 125.761 166.523 126.007 166.523C126.192 166.523 126.343 166.513 126.462 166.494C126.58 166.471 126.675 166.452 126.746 166.438L127.087 167.943C126.973 167.986 126.814 168.028 126.611 168.071C126.407 168.118 126.149 168.142 125.837 168.142C125.363 168.142 124.899 168.04 124.445 167.837C123.995 167.633 123.621 167.323 123.322 166.906C123.029 166.49 122.882 165.964 122.882 165.33V154.477ZM130.489 172.091C130.205 172.091 129.951 172.067 129.729 172.02C129.506 171.977 129.352 171.935 129.267 171.892L129.693 170.415C130.1 170.519 130.46 170.557 130.773 170.528C131.085 170.5 131.362 170.36 131.604 170.109C131.85 169.863 132.075 169.463 132.278 168.909L132.591 168.057L128.557 157.091H130.375L133.386 165.784H133.5L136.511 157.091H138.33L133.699 169.591C133.491 170.154 133.232 170.621 132.925 170.99C132.617 171.364 132.259 171.641 131.852 171.821C131.45 172.001 130.995 172.091 130.489 172.091ZM149.377 168.256C148.686 168.256 148.058 168.125 147.495 167.865C146.932 167.6 146.484 167.219 146.153 166.722C145.821 166.22 145.656 165.614 145.656 164.903C145.656 164.278 145.779 163.772 146.025 163.384C146.271 162.991 146.6 162.683 147.012 162.46C147.424 162.238 147.879 162.072 148.376 161.963C148.878 161.849 149.382 161.759 149.888 161.693C150.551 161.608 151.089 161.544 151.501 161.501C151.917 161.454 152.22 161.376 152.41 161.267C152.604 161.158 152.701 160.969 152.701 160.699V160.642C152.701 159.941 152.509 159.397 152.126 159.009C151.747 158.62 151.172 158.426 150.4 158.426C149.6 158.426 148.972 158.601 148.518 158.952C148.063 159.302 147.744 159.676 147.559 160.074L145.968 159.506C146.252 158.843 146.631 158.327 147.104 157.957C147.583 157.583 148.103 157.323 148.667 157.176C149.235 157.025 149.794 156.949 150.343 156.949C150.693 156.949 151.096 156.991 151.55 157.077C152.01 157.157 152.452 157.325 152.879 157.581C153.309 157.837 153.667 158.223 153.951 158.739C154.235 159.255 154.377 159.946 154.377 160.812V168H152.701V166.523H152.616C152.502 166.759 152.313 167.013 152.048 167.283C151.782 167.553 151.43 167.782 150.989 167.972C150.549 168.161 150.012 168.256 149.377 168.256ZM149.633 166.75C150.296 166.75 150.854 166.62 151.309 166.359C151.768 166.099 152.114 165.763 152.346 165.351C152.583 164.939 152.701 164.506 152.701 164.051V162.517C152.63 162.602 152.474 162.68 152.232 162.751C151.996 162.818 151.721 162.877 151.408 162.929C151.101 162.976 150.8 163.019 150.506 163.057C150.218 163.09 149.983 163.118 149.803 163.142C149.368 163.199 148.96 163.291 148.582 163.419C148.208 163.542 147.905 163.729 147.673 163.98C147.445 164.226 147.332 164.562 147.332 164.989C147.332 165.571 147.547 166.011 147.978 166.31C148.414 166.603 148.965 166.75 149.633 166.75ZM159.113 161.438V168H157.436V157.091H159.056V158.795H159.198C159.453 158.241 159.842 157.796 160.363 157.46C160.883 157.119 161.556 156.949 162.38 156.949C163.118 156.949 163.765 157.1 164.319 157.403C164.873 157.702 165.303 158.156 165.611 158.767C165.919 159.373 166.073 160.14 166.073 161.068V168H164.397V161.182C164.397 160.325 164.174 159.657 163.729 159.179C163.284 158.696 162.673 158.455 161.897 158.455C161.362 158.455 160.883 158.571 160.462 158.803C160.045 159.035 159.716 159.373 159.475 159.818C159.233 160.263 159.113 160.803 159.113 161.438ZM173.255 168.227C172.346 168.227 171.543 167.998 170.847 167.538C170.151 167.074 169.607 166.421 169.214 165.578C168.821 164.731 168.624 163.729 168.624 162.574C168.624 161.428 168.821 160.434 169.214 159.591C169.607 158.748 170.154 158.097 170.854 157.638C171.555 157.179 172.365 156.949 173.283 156.949C173.994 156.949 174.555 157.067 174.967 157.304C175.383 157.536 175.701 157.801 175.918 158.099C176.141 158.393 176.314 158.634 176.437 158.824H176.579V153.455H178.255V168H176.636V166.324H176.437C176.314 166.523 176.138 166.774 175.911 167.077C175.684 167.375 175.36 167.643 174.938 167.879C174.517 168.111 173.956 168.227 173.255 168.227ZM173.482 166.722C174.155 166.722 174.723 166.546 175.187 166.196C175.651 165.841 176.004 165.351 176.245 164.726C176.487 164.096 176.607 163.369 176.607 162.545C176.607 161.731 176.489 161.018 176.252 160.408C176.015 159.792 175.665 159.314 175.201 158.973C174.737 158.627 174.164 158.455 173.482 158.455C172.772 158.455 172.18 158.637 171.707 159.001C171.238 159.361 170.885 159.851 170.648 160.472C170.416 161.087 170.3 161.778 170.3 162.545C170.3 163.322 170.419 164.027 170.656 164.662C170.897 165.292 171.252 165.794 171.721 166.168C172.194 166.537 172.781 166.722 173.482 166.722ZM190.393 168.256C189.701 168.256 189.074 168.125 188.511 167.865C187.947 167.6 187.5 167.219 187.168 166.722C186.837 166.22 186.671 165.614 186.671 164.903C186.671 164.278 186.794 163.772 187.04 163.384C187.287 162.991 187.616 162.683 188.028 162.46C188.44 162.238 188.894 162.072 189.391 161.963C189.893 161.849 190.397 161.759 190.904 161.693C191.567 161.608 192.104 161.544 192.516 161.501C192.933 161.454 193.236 161.376 193.425 161.267C193.62 161.158 193.717 160.969 193.717 160.699V160.642C193.717 159.941 193.525 159.397 193.141 159.009C192.763 158.62 192.187 158.426 191.415 158.426C190.615 158.426 189.988 158.601 189.533 158.952C189.079 159.302 188.759 159.676 188.575 160.074L186.984 159.506C187.268 158.843 187.647 158.327 188.12 157.957C188.598 157.583 189.119 157.323 189.683 157.176C190.251 157.025 190.809 156.949 191.359 156.949C191.709 156.949 192.112 156.991 192.566 157.077C193.025 157.157 193.468 157.325 193.894 157.581C194.325 157.837 194.683 158.223 194.967 158.739C195.251 159.255 195.393 159.946 195.393 160.812V168H193.717V166.523H193.631C193.518 166.759 193.328 167.013 193.063 167.283C192.798 167.553 192.445 167.782 192.005 167.972C191.565 168.161 191.027 168.256 190.393 168.256ZM190.648 166.75C191.311 166.75 191.87 166.62 192.325 166.359C192.784 166.099 193.129 165.763 193.362 165.351C193.598 164.939 193.717 164.506 193.717 164.051V162.517C193.646 162.602 193.489 162.68 193.248 162.751C193.011 162.818 192.737 162.877 192.424 162.929C192.116 162.976 191.816 163.019 191.522 163.057C191.233 163.09 190.999 163.118 190.819 163.142C190.383 163.199 189.976 163.291 189.597 163.419C189.223 163.542 188.92 163.729 188.688 163.98C188.461 164.226 188.347 164.562 188.347 164.989C188.347 165.571 188.563 166.011 188.994 166.31C189.429 166.603 189.981 166.75 190.648 166.75ZM206.982 157.091L202.948 168H201.243L197.209 157.091H199.027L202.039 165.784H202.152L205.164 157.091H206.982ZM212.072 168.256C211.381 168.256 210.754 168.125 210.19 167.865C209.627 167.6 209.179 167.219 208.848 166.722C208.517 166.22 208.351 165.614 208.351 164.903C208.351 164.278 208.474 163.772 208.72 163.384C208.966 162.991 209.295 162.683 209.707 162.46C210.119 162.238 210.574 162.072 211.071 161.963C211.573 161.849 212.077 161.759 212.584 161.693C213.247 161.608 213.784 161.544 214.196 161.501C214.613 161.454 214.916 161.376 215.105 161.267C215.299 161.158 215.396 160.969 215.396 160.699V160.642C215.396 159.941 215.205 159.397 214.821 159.009C214.442 158.62 213.867 158.426 213.095 158.426C212.295 158.426 211.668 158.601 211.213 158.952C210.759 159.302 210.439 159.676 210.254 160.074L208.663 159.506C208.947 158.843 209.326 158.327 209.8 157.957C210.278 157.583 210.799 157.323 211.362 157.176C211.93 157.025 212.489 156.949 213.038 156.949C213.389 156.949 213.791 156.991 214.246 157.077C214.705 157.157 215.148 157.325 215.574 157.581C216.005 157.837 216.362 158.223 216.646 158.739C216.93 159.255 217.072 159.946 217.072 160.812V168H215.396V166.523H215.311C215.197 166.759 215.008 167.013 214.743 167.283C214.478 167.553 214.125 167.782 213.685 167.972C213.244 168.161 212.707 168.256 212.072 168.256ZM212.328 166.75C212.991 166.75 213.55 166.62 214.004 166.359C214.464 166.099 214.809 165.763 215.041 165.351C215.278 164.939 215.396 164.506 215.396 164.051V162.517C215.325 162.602 215.169 162.68 214.928 162.751C214.691 162.818 214.416 162.877 214.104 162.929C213.796 162.976 213.495 163.019 213.202 163.057C212.913 163.09 212.679 163.118 212.499 163.142C212.063 163.199 211.656 163.291 211.277 163.419C210.903 163.542 210.6 163.729 210.368 163.98C210.141 164.226 210.027 164.562 210.027 164.989C210.027 165.571 210.242 166.011 210.673 166.31C211.109 166.603 211.661 166.75 212.328 166.75ZM220.132 168V157.091H221.808V168H220.132ZM220.984 155.273C220.657 155.273 220.376 155.161 220.139 154.939C219.907 154.716 219.791 154.449 219.791 154.136C219.791 153.824 219.907 153.556 220.139 153.334C220.376 153.111 220.657 153 220.984 153C221.311 153 221.59 153.111 221.822 153.334C222.059 153.556 222.177 153.824 222.177 154.136C222.177 154.449 222.059 154.716 221.822 154.939C221.59 155.161 221.311 155.273 220.984 155.273ZM226.554 153.455V168H224.878V153.455H226.554ZM232.834 168.256C232.143 168.256 231.516 168.125 230.952 167.865C230.389 167.6 229.941 167.219 229.61 166.722C229.278 166.22 229.113 165.614 229.113 164.903C229.113 164.278 229.236 163.772 229.482 163.384C229.728 162.991 230.057 162.683 230.469 162.46C230.881 162.238 231.336 162.072 231.833 161.963C232.335 161.849 232.839 161.759 233.346 161.693C234.008 161.608 234.546 161.544 234.958 161.501C235.374 161.454 235.677 161.376 235.867 161.267C236.061 161.158 236.158 160.969 236.158 160.699V160.642C236.158 159.941 235.966 159.397 235.583 159.009C235.204 158.62 234.629 158.426 233.857 158.426C233.057 158.426 232.429 158.601 231.975 158.952C231.52 159.302 231.201 159.676 231.016 160.074L229.425 159.506C229.709 158.843 230.088 158.327 230.561 157.957C231.04 157.583 231.56 157.323 232.124 157.176C232.692 157.025 233.251 156.949 233.8 156.949C234.15 156.949 234.553 156.991 235.007 157.077C235.467 157.157 235.909 157.325 236.336 157.581C236.766 157.837 237.124 158.223 237.408 158.739C237.692 159.255 237.834 159.946 237.834 160.812V168H236.158V166.523H236.073C235.959 166.759 235.77 167.013 235.505 167.283C235.239 167.553 234.887 167.782 234.446 167.972C234.006 168.161 233.469 168.256 232.834 168.256ZM233.09 166.75C233.753 166.75 234.311 166.62 234.766 166.359C235.225 166.099 235.571 165.763 235.803 165.351C236.04 164.939 236.158 164.506 236.158 164.051V162.517C236.087 162.602 235.931 162.68 235.689 162.751C235.453 162.818 235.178 162.877 234.865 162.929C234.558 162.976 234.257 163.019 233.963 163.057C233.675 163.09 233.44 163.118 233.26 163.142C232.825 163.199 232.417 163.291 232.039 163.419C231.665 163.542 231.362 163.729 231.13 163.98C230.902 164.226 230.789 164.562 230.789 164.989C230.789 165.571 231.004 166.011 231.435 166.31C231.871 166.603 232.422 166.75 233.09 166.75ZM241.121 168V153.455H242.797V158.824H242.939C243.062 158.634 243.232 158.393 243.45 158.099C243.673 157.801 243.99 157.536 244.402 157.304C244.819 157.067 245.382 156.949 246.092 156.949C247.011 156.949 247.821 157.179 248.521 157.638C249.222 158.097 249.769 158.748 250.162 159.591C250.555 160.434 250.751 161.428 250.751 162.574C250.751 163.729 250.555 164.731 250.162 165.578C249.769 166.421 249.224 167.074 248.528 167.538C247.832 167.998 247.03 168.227 246.121 168.227C245.42 168.227 244.859 168.111 244.438 167.879C244.016 167.643 243.692 167.375 243.464 167.077C243.237 166.774 243.062 166.523 242.939 166.324H242.74V168H241.121ZM242.768 162.545C242.768 163.369 242.889 164.096 243.131 164.726C243.372 165.351 243.725 165.841 244.189 166.196C244.653 166.546 245.221 166.722 245.893 166.722C246.594 166.722 247.179 166.537 247.648 166.168C248.121 165.794 248.476 165.292 248.713 164.662C248.955 164.027 249.075 163.322 249.075 162.545C249.075 161.778 248.957 161.087 248.72 160.472C248.488 159.851 248.135 159.361 247.662 159.001C247.193 158.637 246.604 158.455 245.893 158.455C245.212 158.455 244.639 158.627 244.175 158.973C243.711 159.314 243.36 159.792 243.124 160.408C242.887 161.018 242.768 161.731 242.768 162.545ZM253.315 168V157.091H254.991V168H253.315ZM254.168 155.273C253.841 155.273 253.559 155.161 253.322 154.939C253.09 154.716 252.974 154.449 252.974 154.136C252.974 153.824 253.09 153.556 253.322 153.334C253.559 153.111 253.841 153 254.168 153C254.494 153 254.774 153.111 255.006 153.334C255.242 153.556 255.361 153.824 255.361 154.136C255.361 154.449 255.242 154.716 255.006 154.939C254.774 155.161 254.494 155.273 254.168 155.273ZM259.738 153.455V168H258.061V153.455H259.738ZM262.808 168V157.091H264.484V168H262.808ZM263.66 155.273C263.333 155.273 263.051 155.161 262.815 154.939C262.583 154.716 262.467 154.449 262.467 154.136C262.467 153.824 262.583 153.556 262.815 153.334C263.051 153.111 263.333 153 263.66 153C263.987 153 264.266 153.111 264.498 153.334C264.735 153.556 264.853 153.824 264.853 154.136C264.853 154.449 264.735 154.716 264.498 154.939C264.266 155.161 263.987 155.273 263.66 155.273ZM272.298 157.091V158.511H266.645V157.091H272.298ZM268.292 154.477H269.968V164.875C269.968 165.348 270.037 165.704 270.174 165.94C270.316 166.172 270.496 166.329 270.714 166.409C270.937 166.485 271.171 166.523 271.417 166.523C271.602 166.523 271.753 166.513 271.872 166.494C271.99 166.471 272.085 166.452 272.156 166.438L272.497 167.943C272.383 167.986 272.225 168.028 272.021 168.071C271.817 168.118 271.559 168.142 271.247 168.142C270.773 168.142 270.309 168.04 269.855 167.837C269.405 167.633 269.031 167.323 268.733 166.906C268.439 166.49 268.292 165.964 268.292 165.33V154.477ZM275.899 172.091C275.615 172.091 275.361 172.067 275.139 172.02C274.916 171.977 274.762 171.935 274.677 171.892L275.103 170.415C275.511 170.519 275.87 170.557 276.183 170.528C276.495 170.5 276.772 170.36 277.014 170.109C277.26 169.863 277.485 169.463 277.689 168.909L278.001 168.057L273.967 157.091H275.785L278.797 165.784H278.91L281.922 157.091H283.74L279.109 169.591C278.901 170.154 278.643 170.621 278.335 170.99C278.027 171.364 277.67 171.641 277.262 171.821C276.86 172.001 276.405 172.091 275.899 172.091ZM296.009 168.227C295.024 168.227 294.16 167.993 293.417 167.524C292.678 167.055 292.1 166.4 291.684 165.557C291.272 164.714 291.066 163.729 291.066 162.602C291.066 161.466 291.272 160.474 291.684 159.626C292.1 158.779 292.678 158.121 293.417 157.652C294.16 157.183 295.024 156.949 296.009 156.949C296.994 156.949 297.855 157.183 298.594 157.652C299.337 158.121 299.915 158.779 300.327 159.626C300.744 160.474 300.952 161.466 300.952 162.602C300.952 163.729 300.744 164.714 300.327 165.557C299.915 166.4 299.337 167.055 298.594 167.524C297.855 167.993 296.994 168.227 296.009 168.227ZM296.009 166.722C296.757 166.722 297.373 166.53 297.855 166.146C298.338 165.763 298.696 165.259 298.928 164.634C299.16 164.009 299.276 163.331 299.276 162.602C299.276 161.873 299.16 161.194 298.928 160.564C298.696 159.934 298.338 159.425 297.855 159.037C297.373 158.649 296.757 158.455 296.009 158.455C295.261 158.455 294.645 158.649 294.162 159.037C293.679 159.425 293.322 159.934 293.09 160.564C292.858 161.194 292.742 161.873 292.742 162.602C292.742 163.331 292.858 164.009 293.09 164.634C293.322 165.259 293.679 165.763 294.162 166.146C294.645 166.53 295.261 166.722 296.009 166.722ZM308.369 157.091V158.511H302.488V157.091H308.369ZM304.249 168V155.585C304.249 154.96 304.396 154.439 304.69 154.023C304.983 153.606 305.364 153.294 305.833 153.085C306.302 152.877 306.797 152.773 307.317 152.773C307.729 152.773 308.066 152.806 308.326 152.872C308.586 152.938 308.781 153 308.908 153.057L308.425 154.506C308.34 154.477 308.222 154.442 308.07 154.399C307.924 154.357 307.729 154.335 307.488 154.335C306.934 154.335 306.534 154.475 306.288 154.754C306.046 155.034 305.925 155.443 305.925 155.983V168H304.249ZM321.087 157.091V158.511H315.434V157.091H321.087ZM317.081 154.477H318.757V164.875C318.757 165.348 318.826 165.704 318.963 165.94C319.105 166.172 319.285 166.329 319.503 166.409C319.726 166.485 319.96 166.523 320.206 166.523C320.391 166.523 320.542 166.513 320.661 166.494C320.779 166.471 320.874 166.452 320.945 166.438L321.286 167.943C321.172 167.986 321.014 168.028 320.81 168.071C320.606 168.118 320.348 168.142 320.036 168.142C319.562 168.142 319.098 168.04 318.644 167.837C318.194 167.633 317.82 167.323 317.522 166.906C317.228 166.49 317.081 165.964 317.081 165.33V154.477ZM325.519 161.438V168H323.843V153.455H325.519V158.795H325.661C325.917 158.232 326.3 157.785 326.811 157.453C327.328 157.117 328.014 156.949 328.871 156.949C329.614 156.949 330.266 157.098 330.824 157.396C331.383 157.69 331.816 158.142 332.124 158.753C332.436 159.359 332.593 160.131 332.593 161.068V168H330.917V161.182C330.917 160.315 330.692 159.645 330.242 159.172C329.797 158.694 329.179 158.455 328.388 158.455C327.839 158.455 327.346 158.571 326.911 158.803C326.48 159.035 326.139 159.373 325.888 159.818C325.642 160.263 325.519 160.803 325.519 161.438ZM335.659 168V157.091H337.335V168H335.659ZM336.511 155.273C336.185 155.273 335.903 155.161 335.666 154.939C335.434 154.716 335.318 154.449 335.318 154.136C335.318 153.824 335.434 153.556 335.666 153.334C335.903 153.111 336.185 153 336.511 153C336.838 153 337.117 153.111 337.349 153.334C337.586 153.556 337.705 153.824 337.705 154.136C337.705 154.449 337.586 154.716 337.349 154.939C337.117 155.161 336.838 155.273 336.511 155.273ZM348.132 159.534L346.627 159.96C346.532 159.709 346.392 159.465 346.208 159.229C346.028 158.987 345.782 158.788 345.469 158.632C345.157 158.476 344.757 158.398 344.269 158.398C343.601 158.398 343.045 158.552 342.6 158.859C342.159 159.162 341.939 159.548 341.939 160.017C341.939 160.434 342.091 160.763 342.394 161.004C342.697 161.246 343.17 161.447 343.814 161.608L345.434 162.006C346.409 162.242 347.136 162.605 347.614 163.092C348.092 163.575 348.331 164.198 348.331 164.96C348.331 165.585 348.151 166.144 347.792 166.636C347.436 167.129 346.939 167.517 346.3 167.801C345.661 168.085 344.917 168.227 344.07 168.227C342.957 168.227 342.036 167.986 341.307 167.503C340.578 167.02 340.116 166.314 339.922 165.386L341.513 164.989C341.665 165.576 341.951 166.016 342.373 166.31C342.799 166.603 343.355 166.75 344.042 166.75C344.823 166.75 345.443 166.584 345.902 166.253C346.366 165.917 346.598 165.514 346.598 165.045C346.598 164.667 346.466 164.349 346.201 164.094C345.935 163.833 345.528 163.639 344.979 163.511L343.161 163.085C342.162 162.848 341.428 162.482 340.959 161.984C340.495 161.482 340.263 160.855 340.263 160.102C340.263 159.487 340.436 158.942 340.782 158.469C341.132 157.995 341.608 157.624 342.209 157.354C342.815 157.084 343.502 156.949 344.269 156.949C345.348 156.949 346.196 157.186 346.811 157.659C347.432 158.133 347.872 158.758 348.132 159.534ZM361.053 168.227C360.002 168.227 359.095 167.995 358.333 167.531C357.576 167.062 356.991 166.409 356.579 165.571C356.172 164.728 355.968 163.748 355.968 162.631C355.968 161.513 356.172 160.528 356.579 159.676C356.991 158.819 357.564 158.152 358.298 157.673C359.036 157.19 359.898 156.949 360.883 156.949C361.451 156.949 362.012 157.044 362.566 157.233C363.12 157.422 363.624 157.73 364.079 158.156C364.533 158.578 364.896 159.136 365.165 159.832C365.435 160.528 365.57 161.385 365.57 162.403V163.114H357.161V161.665H363.866C363.866 161.049 363.743 160.5 363.496 160.017C363.255 159.534 362.909 159.153 362.46 158.874C362.014 158.594 361.489 158.455 360.883 158.455C360.215 158.455 359.638 158.62 359.15 158.952C358.667 159.278 358.295 159.705 358.035 160.23C357.774 160.756 357.644 161.319 357.644 161.92V162.886C357.644 163.71 357.786 164.409 358.07 164.982C358.359 165.55 358.759 165.983 359.271 166.281C359.782 166.575 360.376 166.722 361.053 166.722C361.494 166.722 361.891 166.66 362.246 166.537C362.606 166.409 362.916 166.22 363.177 165.969C363.437 165.713 363.638 165.396 363.781 165.017L365.4 165.472C365.229 166.021 364.943 166.504 364.54 166.92C364.138 167.332 363.641 167.654 363.049 167.886C362.457 168.114 361.792 168.227 361.053 168.227ZM369.796 161.438V168H368.12V157.091H369.739V158.795H369.881C370.137 158.241 370.525 157.796 371.046 157.46C371.567 157.119 372.239 156.949 373.063 156.949C373.802 156.949 374.448 157.1 375.002 157.403C375.556 157.702 375.987 158.156 376.295 158.767C376.603 159.373 376.756 160.14 376.756 161.068V168H375.08V161.182C375.08 160.325 374.858 159.657 374.413 159.179C373.968 158.696 373.357 158.455 372.58 158.455C372.045 158.455 371.567 158.571 371.146 158.803C370.729 159.035 370.4 159.373 370.158 159.818C369.917 160.263 369.796 160.803 369.796 161.438ZM384.223 172.318C383.413 172.318 382.717 172.214 382.135 172.006C381.552 171.802 381.067 171.532 380.679 171.196C380.295 170.865 379.99 170.509 379.762 170.131L381.098 169.193C381.249 169.392 381.441 169.619 381.673 169.875C381.905 170.135 382.222 170.36 382.625 170.55C383.032 170.744 383.565 170.841 384.223 170.841C385.103 170.841 385.83 170.628 386.403 170.202C386.976 169.776 387.262 169.108 387.262 168.199V165.983H387.12C386.997 166.182 386.822 166.428 386.595 166.722C386.372 167.01 386.05 167.268 385.629 167.496C385.212 167.718 384.649 167.83 383.939 167.83C383.058 167.83 382.267 167.621 381.566 167.205C380.87 166.788 380.319 166.182 379.912 165.386C379.509 164.591 379.308 163.625 379.308 162.489C379.308 161.371 379.504 160.398 379.897 159.57C380.29 158.736 380.837 158.092 381.538 157.638C382.239 157.179 383.048 156.949 383.967 156.949C384.677 156.949 385.241 157.067 385.657 157.304C386.079 157.536 386.401 157.801 386.623 158.099C386.85 158.393 387.026 158.634 387.149 158.824H387.319V157.091H388.939V168.312C388.939 169.25 388.725 170.012 388.299 170.599C387.878 171.191 387.31 171.625 386.595 171.899C385.885 172.179 385.094 172.318 384.223 172.318ZM384.166 166.324C384.838 166.324 385.406 166.17 385.87 165.862C386.334 165.554 386.687 165.112 386.929 164.534C387.17 163.956 387.291 163.265 387.291 162.46C387.291 161.674 387.172 160.981 386.936 160.379C386.699 159.778 386.349 159.307 385.885 158.966C385.421 158.625 384.848 158.455 384.166 158.455C383.456 158.455 382.864 158.634 382.39 158.994C381.922 159.354 381.569 159.837 381.332 160.443C381.1 161.049 380.984 161.722 380.984 162.46C380.984 163.218 381.102 163.888 381.339 164.47C381.581 165.048 381.936 165.502 382.404 165.834C382.878 166.161 383.465 166.324 384.166 166.324ZM395.217 168.256C394.526 168.256 393.898 168.125 393.335 167.865C392.771 167.6 392.324 167.219 391.993 166.722C391.661 166.22 391.495 165.614 391.495 164.903C391.495 164.278 391.618 163.772 391.865 163.384C392.111 162.991 392.44 162.683 392.852 162.46C393.264 162.238 393.718 162.072 394.216 161.963C394.717 161.849 395.222 161.759 395.728 161.693C396.391 161.608 396.929 161.544 397.341 161.501C397.757 161.454 398.06 161.376 398.25 161.267C398.444 161.158 398.541 160.969 398.541 160.699V160.642C398.541 159.941 398.349 159.397 397.966 159.009C397.587 158.62 397.011 158.426 396.24 158.426C395.44 158.426 394.812 158.601 394.358 158.952C393.903 159.302 393.583 159.676 393.399 160.074L391.808 159.506C392.092 158.843 392.471 158.327 392.944 157.957C393.422 157.583 393.943 157.323 394.507 157.176C395.075 157.025 395.634 156.949 396.183 156.949C396.533 156.949 396.936 156.991 397.39 157.077C397.85 157.157 398.292 157.325 398.718 157.581C399.149 157.837 399.507 158.223 399.791 158.739C400.075 159.255 400.217 159.946 400.217 160.812V168H398.541V166.523H398.456C398.342 166.759 398.153 167.013 397.887 167.283C397.622 167.553 397.27 167.782 396.829 167.972C396.389 168.161 395.851 168.256 395.217 168.256ZM395.473 166.75C396.136 166.75 396.694 166.62 397.149 166.359C397.608 166.099 397.954 165.763 398.186 165.351C398.422 164.939 398.541 164.506 398.541 164.051V162.517C398.47 162.602 398.314 162.68 398.072 162.751C397.835 162.818 397.561 162.877 397.248 162.929C396.94 162.976 396.64 163.019 396.346 163.057C396.057 163.09 395.823 163.118 395.643 163.142C395.208 163.199 394.8 163.291 394.422 163.419C394.047 163.542 393.744 163.729 393.512 163.98C393.285 164.226 393.172 164.562 393.172 164.989C393.172 165.571 393.387 166.011 393.818 166.31C394.253 166.603 394.805 166.75 395.473 166.75ZM407.68 172.318C406.87 172.318 406.174 172.214 405.592 172.006C405.009 171.802 404.524 171.532 404.136 171.196C403.752 170.865 403.447 170.509 403.219 170.131L404.555 169.193C404.706 169.392 404.898 169.619 405.13 169.875C405.362 170.135 405.679 170.36 406.082 170.55C406.489 170.744 407.022 170.841 407.68 170.841C408.56 170.841 409.287 170.628 409.86 170.202C410.433 169.776 410.719 169.108 410.719 168.199V165.983H410.577C410.454 166.182 410.279 166.428 410.052 166.722C409.829 167.01 409.507 167.268 409.086 167.496C408.669 167.718 408.106 167.83 407.396 167.83C406.515 167.83 405.724 167.621 405.023 167.205C404.327 166.788 403.776 166.182 403.369 165.386C402.966 164.591 402.765 163.625 402.765 162.489C402.765 161.371 402.961 160.398 403.354 159.57C403.747 158.736 404.294 158.092 404.995 157.638C405.696 157.179 406.505 156.949 407.424 156.949C408.134 156.949 408.698 157.067 409.114 157.304C409.536 157.536 409.858 157.801 410.08 158.099C410.308 158.393 410.483 158.634 410.606 158.824H410.776V157.091H412.396V168.312C412.396 169.25 412.183 170.012 411.756 170.599C411.335 171.191 410.767 171.625 410.052 171.899C409.342 172.179 408.551 172.318 407.68 172.318ZM407.623 166.324C408.295 166.324 408.863 166.17 409.327 165.862C409.791 165.554 410.144 165.112 410.386 164.534C410.627 163.956 410.748 163.265 410.748 162.46C410.748 161.674 410.629 160.981 410.393 160.379C410.156 159.778 409.806 159.307 409.342 158.966C408.878 158.625 408.305 158.455 407.623 158.455C406.913 158.455 406.321 158.634 405.847 158.994C405.379 159.354 405.026 159.837 404.789 160.443C404.557 161.049 404.441 161.722 404.441 162.46C404.441 163.218 404.559 163.888 404.796 164.47C405.038 165.048 405.393 165.502 405.862 165.834C406.335 166.161 406.922 166.324 407.623 166.324ZM415.464 168V157.091H417.14V168H415.464ZM416.316 155.273C415.989 155.273 415.708 155.161 415.471 154.939C415.239 154.716 415.123 154.449 415.123 154.136C415.123 153.824 415.239 153.556 415.471 153.334C415.708 153.111 415.989 153 416.316 153C416.643 153 416.922 153.111 417.154 153.334C417.391 153.556 417.509 153.824 417.509 154.136C417.509 154.449 417.391 154.716 417.154 154.939C416.922 155.161 416.643 155.273 416.316 155.273ZM421.886 161.438V168H420.21V157.091H421.829V158.795H421.971C422.227 158.241 422.615 157.796 423.136 157.46C423.657 157.119 424.329 156.949 425.153 156.949C425.892 156.949 426.538 157.1 427.092 157.403C427.646 157.702 428.077 158.156 428.385 158.767C428.692 159.373 428.846 160.14 428.846 161.068V168H427.17V161.182C427.17 160.325 426.948 159.657 426.502 159.179C426.057 158.696 425.447 158.455 424.67 158.455C424.135 158.455 423.657 158.571 423.235 158.803C422.819 159.035 422.49 159.373 422.248 159.818C422.007 160.263 421.886 160.803 421.886 161.438ZM436.312 172.318C435.503 172.318 434.807 172.214 434.224 172.006C433.642 171.802 433.157 171.532 432.768 171.196C432.385 170.865 432.08 170.509 431.852 170.131L433.188 169.193C433.339 169.392 433.531 169.619 433.763 169.875C433.995 170.135 434.312 170.36 434.714 170.55C435.122 170.744 435.654 170.841 436.312 170.841C437.193 170.841 437.92 170.628 438.493 170.202C439.066 169.776 439.352 169.108 439.352 168.199V165.983H439.21C439.087 166.182 438.912 166.428 438.685 166.722C438.462 167.01 438.14 167.268 437.719 167.496C437.302 167.718 436.739 167.83 436.028 167.83C435.148 167.83 434.357 167.621 433.656 167.205C432.96 166.788 432.409 166.182 432.001 165.386C431.599 164.591 431.398 163.625 431.398 162.489C431.398 161.371 431.594 160.398 431.987 159.57C432.38 158.736 432.927 158.092 433.628 157.638C434.329 157.179 435.138 156.949 436.057 156.949C436.767 156.949 437.33 157.067 437.747 157.304C438.169 157.536 438.491 157.801 438.713 158.099C438.94 158.393 439.116 158.634 439.239 158.824H439.409V157.091H441.028V168.312C441.028 169.25 440.815 170.012 440.389 170.599C439.968 171.191 439.4 171.625 438.685 171.899C437.974 172.179 437.184 172.318 436.312 172.318ZM436.256 166.324C436.928 166.324 437.496 166.17 437.96 165.862C438.424 165.554 438.777 165.112 439.018 164.534C439.26 163.956 439.381 163.265 439.381 162.46C439.381 161.674 439.262 160.981 439.026 160.379C438.789 159.778 438.438 159.307 437.974 158.966C437.51 158.625 436.938 158.455 436.256 158.455C435.545 158.455 434.954 158.634 434.48 158.994C434.011 159.354 433.659 159.837 433.422 160.443C433.19 161.049 433.074 161.722 433.074 162.46C433.074 163.218 433.192 163.888 433.429 164.47C433.67 165.048 434.026 165.502 434.494 165.834C434.968 166.161 435.555 166.324 436.256 166.324ZM66.6534 192.227C65.7443 192.227 64.9418 191.998 64.2457 191.538C63.5497 191.074 63.0052 190.421 62.6122 189.578C62.2192 188.731 62.0227 187.729 62.0227 186.574C62.0227 185.428 62.2192 184.434 62.6122 183.591C63.0052 182.748 63.5521 182.097 64.2528 181.638C64.9536 181.179 65.7633 180.949 66.6818 180.949C67.392 180.949 67.9531 181.067 68.3651 181.304C68.7817 181.536 69.099 181.801 69.3168 182.099C69.5393 182.393 69.7121 182.634 69.8352 182.824H69.9773V177.455H71.6534V192H70.0341V190.324H69.8352C69.7121 190.523 69.5369 190.774 69.3097 191.077C69.0824 191.375 68.758 191.643 68.3366 191.879C67.9152 192.111 67.3542 192.227 66.6534 192.227ZM66.8807 190.722C67.553 190.722 68.1212 190.546 68.5852 190.196C69.0492 189.841 69.402 189.351 69.6435 188.726C69.8849 188.096 70.0057 187.369 70.0057 186.545C70.0057 185.731 69.8873 185.018 69.6506 184.408C69.4138 183.792 69.0634 183.314 68.5994 182.973C68.1354 182.627 67.5625 182.455 66.8807 182.455C66.1705 182.455 65.5786 182.637 65.1051 183.001C64.6364 183.361 64.2836 183.851 64.0469 184.472C63.8149 185.087 63.6989 185.778 63.6989 186.545C63.6989 187.322 63.8172 188.027 64.054 188.662C64.2955 189.292 64.6506 189.794 65.1193 190.168C65.5928 190.537 66.1799 190.722 66.8807 190.722ZM74.956 192V181.091H76.6321V192H74.956ZM75.8082 179.273C75.4815 179.273 75.1998 179.161 74.9631 178.939C74.7311 178.716 74.6151 178.449 74.6151 178.136C74.6151 177.824 74.7311 177.556 74.9631 177.334C75.1998 177.111 75.4815 177 75.8082 177C76.1349 177 76.4143 177.111 76.6463 177.334C76.883 177.556 77.0014 177.824 77.0014 178.136C77.0014 178.449 76.883 178.716 76.6463 178.939C76.4143 179.161 76.1349 179.273 75.8082 179.273ZM84.1055 196.318C83.2958 196.318 82.5998 196.214 82.0174 196.006C81.435 195.802 80.9497 195.532 80.5614 195.196C80.1779 194.865 79.8725 194.509 79.6452 194.131L80.9805 193.193C81.132 193.392 81.3237 193.619 81.5558 193.875C81.7878 194.135 82.105 194.36 82.5075 194.55C82.9147 194.744 83.4473 194.841 84.1055 194.841C84.9862 194.841 85.713 194.628 86.2859 194.202C86.8588 193.776 87.1452 193.108 87.1452 192.199V189.983H87.0032C86.8801 190.182 86.7049 190.428 86.4776 190.722C86.2551 191.01 85.9331 191.268 85.5117 191.496C85.0951 191.718 84.5316 191.83 83.8214 191.83C82.9407 191.83 82.15 191.621 81.4492 191.205C80.7532 190.788 80.2016 190.182 79.7944 189.386C79.3919 188.591 79.1907 187.625 79.1907 186.489C79.1907 185.371 79.3872 184.398 79.7802 183.57C80.1732 182.736 80.7201 182.092 81.4208 181.638C82.1216 181.179 82.9312 180.949 83.8498 180.949C84.56 180.949 85.1235 181.067 85.5401 181.304C85.9615 181.536 86.2835 181.801 86.506 182.099C86.7333 182.393 86.9085 182.634 87.0316 182.824H87.2021V181.091H88.8214V192.312C88.8214 193.25 88.6083 194.012 88.1822 194.599C87.7608 195.191 87.1926 195.625 86.4776 195.899C85.7674 196.179 84.9767 196.318 84.1055 196.318ZM84.0487 190.324C84.721 190.324 85.2892 190.17 85.7532 189.862C86.2172 189.554 86.57 189.112 86.8114 188.534C87.0529 187.956 87.1737 187.265 87.1737 186.46C87.1737 185.674 87.0553 184.981 86.8185 184.379C86.5818 183.778 86.2314 183.307 85.7674 182.966C85.3034 182.625 84.7305 182.455 84.0487 182.455C83.3384 182.455 82.7466 182.634 82.2731 182.994C81.8043 183.354 81.4516 183.837 81.2148 184.443C80.9828 185.049 80.8668 185.722 80.8668 186.46C80.8668 187.218 80.9852 187.888 81.2219 188.47C81.4634 189.048 81.8185 189.502 82.2873 189.834C82.7608 190.161 83.3479 190.324 84.0487 190.324ZM91.8896 192V181.091H93.5657V192H91.8896ZM92.7418 179.273C92.4151 179.273 92.1334 179.161 91.8967 178.939C91.6647 178.716 91.5487 178.449 91.5487 178.136C91.5487 177.824 91.6647 177.556 91.8967 177.334C92.1334 177.111 92.4151 177 92.7418 177C93.0685 177 93.3479 177.111 93.5799 177.334C93.8166 177.556 93.935 177.824 93.935 178.136C93.935 178.449 93.8166 178.716 93.5799 178.939C93.3479 179.161 93.0685 179.273 92.7418 179.273ZM101.38 181.091V182.511H95.7266V181.091H101.38ZM97.3743 178.477H99.0504V188.875C99.0504 189.348 99.1191 189.704 99.2564 189.94C99.3984 190.172 99.5784 190.329 99.7962 190.409C100.019 190.485 100.253 190.523 100.499 190.523C100.684 190.523 100.835 190.513 100.954 190.494C101.072 190.471 101.167 190.452 101.238 190.438L101.579 191.943C101.465 191.986 101.307 192.028 101.103 192.071C100.899 192.118 100.641 192.142 100.329 192.142C99.8554 192.142 99.3913 192.04 98.9368 191.837C98.487 191.633 98.1129 191.323 97.8146 190.906C97.5211 190.49 97.3743 189.964 97.3743 189.33V178.477ZM107.112 192.256C106.42 192.256 105.793 192.125 105.229 191.865C104.666 191.6 104.219 191.219 103.887 190.722C103.556 190.22 103.39 189.614 103.39 188.903C103.39 188.278 103.513 187.772 103.759 187.384C104.005 186.991 104.335 186.683 104.746 186.46C105.158 186.238 105.613 186.072 106.11 185.963C106.612 185.849 107.116 185.759 107.623 185.693C108.286 185.608 108.823 185.544 109.235 185.501C109.652 185.454 109.955 185.376 110.144 185.267C110.338 185.158 110.435 184.969 110.435 184.699V184.642C110.435 183.941 110.244 183.397 109.86 183.009C109.481 182.62 108.906 182.426 108.134 182.426C107.334 182.426 106.707 182.601 106.252 182.952C105.798 183.302 105.478 183.676 105.293 184.074L103.702 183.506C103.987 182.843 104.365 182.327 104.839 181.957C105.317 181.583 105.838 181.323 106.401 181.176C106.969 181.025 107.528 180.949 108.077 180.949C108.428 180.949 108.83 180.991 109.285 181.077C109.744 181.157 110.187 181.325 110.613 181.581C111.044 181.837 111.401 182.223 111.685 182.739C111.969 183.255 112.112 183.946 112.112 184.812V192H110.435V190.523H110.35C110.237 190.759 110.047 191.013 109.782 191.283C109.517 191.553 109.164 191.782 108.724 191.972C108.283 192.161 107.746 192.256 107.112 192.256ZM107.367 190.75C108.03 190.75 108.589 190.62 109.043 190.359C109.503 190.099 109.848 189.763 110.08 189.351C110.317 188.939 110.435 188.506 110.435 188.051V186.517C110.364 186.602 110.208 186.68 109.967 186.751C109.73 186.818 109.455 186.877 109.143 186.929C108.835 186.976 108.534 187.019 108.241 187.057C107.952 187.09 107.718 187.118 107.538 187.142C107.102 187.199 106.695 187.291 106.316 187.419C105.942 187.542 105.639 187.729 105.407 187.98C105.18 188.226 105.066 188.562 105.066 188.989C105.066 189.571 105.281 190.011 105.712 190.31C106.148 190.603 106.7 190.75 107.367 190.75ZM116.847 177.455V192H115.171V177.455H116.847ZM130.116 192.227C129.065 192.227 128.158 191.995 127.396 191.531C126.638 191.062 126.053 190.409 125.641 189.571C125.234 188.728 125.031 187.748 125.031 186.631C125.031 185.513 125.234 184.528 125.641 183.676C126.053 182.819 126.626 182.152 127.36 181.673C128.099 181.19 128.96 180.949 129.945 180.949C130.513 180.949 131.075 181.044 131.629 181.233C132.183 181.422 132.687 181.73 133.141 182.156C133.596 182.578 133.958 183.136 134.228 183.832C134.498 184.528 134.633 185.385 134.633 186.403V187.114H126.224V185.665H132.928C132.928 185.049 132.805 184.5 132.559 184.017C132.317 183.534 131.972 183.153 131.522 182.874C131.077 182.594 130.551 182.455 129.945 182.455C129.278 182.455 128.7 182.62 128.212 182.952C127.729 183.278 127.358 183.705 127.097 184.23C126.837 184.756 126.707 185.319 126.707 185.92V186.886C126.707 187.71 126.849 188.409 127.133 188.982C127.422 189.55 127.822 189.983 128.333 190.281C128.844 190.575 129.439 190.722 130.116 190.722C130.556 190.722 130.954 190.66 131.309 190.537C131.669 190.409 131.979 190.22 132.239 189.969C132.5 189.713 132.701 189.396 132.843 189.017L134.462 189.472C134.292 190.021 134.005 190.504 133.603 190.92C133.201 191.332 132.703 191.654 132.112 191.886C131.52 192.114 130.854 192.227 130.116 192.227ZM138.14 181.091L140.753 185.551L143.367 181.091H145.299L141.776 186.545L145.299 192H143.367L140.753 187.767L138.14 192H136.208L139.674 186.545L136.208 181.091H138.14ZM147.69 196.091V181.091H149.31V182.824H149.509C149.632 182.634 149.802 182.393 150.02 182.099C150.242 181.801 150.56 181.536 150.972 181.304C151.388 181.067 151.952 180.949 152.662 180.949C153.58 180.949 154.39 181.179 155.091 181.638C155.792 182.097 156.339 182.748 156.732 183.591C157.125 184.434 157.321 185.428 157.321 186.574C157.321 187.729 157.125 188.731 156.732 189.578C156.339 190.421 155.794 191.074 155.098 191.538C154.402 191.998 153.599 192.227 152.69 192.227C151.99 192.227 151.429 192.111 151.007 191.879C150.586 191.643 150.261 191.375 150.034 191.077C149.807 190.774 149.632 190.523 149.509 190.324H149.366V196.091H147.69ZM149.338 186.545C149.338 187.369 149.459 188.096 149.7 188.726C149.942 189.351 150.295 189.841 150.759 190.196C151.223 190.546 151.791 190.722 152.463 190.722C153.164 190.722 153.749 190.537 154.217 190.168C154.691 189.794 155.046 189.292 155.283 188.662C155.524 188.027 155.645 187.322 155.645 186.545C155.645 185.778 155.527 185.087 155.29 184.472C155.058 183.851 154.705 183.361 154.232 183.001C153.763 182.637 153.173 182.455 152.463 182.455C151.781 182.455 151.208 182.627 150.744 182.973C150.28 183.314 149.93 183.792 149.693 184.408C149.456 185.018 149.338 185.731 149.338 186.545ZM164.452 192.227C163.401 192.227 162.494 191.995 161.732 191.531C160.974 191.062 160.389 190.409 159.977 189.571C159.57 188.728 159.366 187.748 159.366 186.631C159.366 185.513 159.57 184.528 159.977 183.676C160.389 182.819 160.962 182.152 161.696 181.673C162.435 181.19 163.296 180.949 164.281 180.949C164.849 180.949 165.411 181.044 165.964 181.233C166.518 181.422 167.023 181.73 167.477 182.156C167.932 182.578 168.294 183.136 168.564 183.832C168.834 184.528 168.969 185.385 168.969 186.403V187.114H160.56V185.665H167.264C167.264 185.049 167.141 184.5 166.895 184.017C166.653 183.534 166.308 183.153 165.858 182.874C165.413 182.594 164.887 182.455 164.281 182.455C163.614 182.455 163.036 182.62 162.548 182.952C162.065 183.278 161.694 183.705 161.433 184.23C161.173 184.756 161.043 185.319 161.043 185.92V186.886C161.043 187.71 161.185 188.409 161.469 188.982C161.758 189.55 162.158 189.983 162.669 190.281C163.18 190.575 163.775 190.722 164.452 190.722C164.892 190.722 165.29 190.66 165.645 190.537C166.005 190.409 166.315 190.22 166.575 189.969C166.836 189.713 167.037 189.396 167.179 189.017L168.798 189.472C168.628 190.021 168.341 190.504 167.939 190.92C167.536 191.332 167.039 191.654 166.447 191.886C165.856 192.114 165.19 192.227 164.452 192.227ZM171.518 192V181.091H173.138V182.739H173.251C173.45 182.199 173.81 181.761 174.331 181.425C174.852 181.089 175.439 180.92 176.092 180.92C176.215 180.92 176.369 180.923 176.554 180.928C176.739 180.932 176.878 180.939 176.973 180.949V182.653C176.916 182.639 176.786 182.618 176.582 182.589C176.384 182.556 176.173 182.54 175.95 182.54C175.42 182.54 174.946 182.651 174.53 182.874C174.118 183.091 173.791 183.394 173.55 183.783C173.313 184.166 173.195 184.604 173.195 185.097V192H171.518ZM178.96 192V181.091H180.636V192H178.96ZM179.812 179.273C179.485 179.273 179.204 179.161 178.967 178.939C178.735 178.716 178.619 178.449 178.619 178.136C178.619 177.824 178.735 177.556 178.967 177.334C179.204 177.111 179.485 177 179.812 177C180.139 177 180.418 177.111 180.65 177.334C180.887 177.556 181.005 177.824 181.005 178.136C181.005 178.449 180.887 178.716 180.65 178.939C180.418 179.161 180.139 179.273 179.812 179.273ZM188.28 192.227C187.229 192.227 186.322 191.995 185.56 191.531C184.802 191.062 184.217 190.409 183.805 189.571C183.398 188.728 183.195 187.748 183.195 186.631C183.195 185.513 183.398 184.528 183.805 183.676C184.217 182.819 184.79 182.152 185.524 181.673C186.263 181.19 187.125 180.949 188.109 180.949C188.678 180.949 189.239 181.044 189.793 181.233C190.347 181.422 190.851 181.73 191.305 182.156C191.76 182.578 192.122 183.136 192.392 183.832C192.662 184.528 192.797 185.385 192.797 186.403V187.114H184.388V185.665H191.092C191.092 185.049 190.969 184.5 190.723 184.017C190.482 183.534 190.136 183.153 189.686 182.874C189.241 182.594 188.715 182.455 188.109 182.455C187.442 182.455 186.864 182.62 186.376 182.952C185.893 183.278 185.522 183.705 185.261 184.23C185.001 184.756 184.871 185.319 184.871 185.92V186.886C184.871 187.71 185.013 188.409 185.297 188.982C185.586 189.55 185.986 189.983 186.497 190.281C187.009 190.575 187.603 190.722 188.28 190.722C188.72 190.722 189.118 190.66 189.473 190.537C189.833 190.409 190.143 190.22 190.403 189.969C190.664 189.713 190.865 189.396 191.007 189.017L192.626 189.472C192.456 190.021 192.17 190.504 191.767 190.92C191.365 191.332 190.867 191.654 190.276 191.886C189.684 192.114 189.018 192.227 188.28 192.227ZM197.023 185.438V192H195.347V181.091H196.966V182.795H197.108C197.364 182.241 197.752 181.796 198.273 181.46C198.794 181.119 199.466 180.949 200.29 180.949C201.028 180.949 201.675 181.1 202.229 181.403C202.783 181.702 203.214 182.156 203.521 182.767C203.829 183.373 203.983 184.14 203.983 185.068V192H202.307V185.182C202.307 184.325 202.084 183.657 201.639 183.179C201.194 182.696 200.583 182.455 199.807 182.455C199.272 182.455 198.794 182.571 198.372 182.803C197.955 183.035 197.626 183.373 197.385 183.818C197.143 184.263 197.023 184.803 197.023 185.438ZM211.478 192.227C210.455 192.227 209.574 191.986 208.836 191.503C208.097 191.02 207.529 190.355 207.131 189.507C206.733 188.66 206.534 187.691 206.534 186.602C206.534 185.494 206.738 184.517 207.145 183.669C207.557 182.817 208.13 182.152 208.864 181.673C209.603 181.19 210.464 180.949 211.449 180.949C212.216 180.949 212.908 181.091 213.523 181.375C214.139 181.659 214.643 182.057 215.036 182.568C215.429 183.08 215.673 183.676 215.767 184.358H214.091C213.963 183.861 213.679 183.42 213.239 183.037C212.803 182.649 212.216 182.455 211.478 182.455C210.824 182.455 210.251 182.625 209.759 182.966C209.271 183.302 208.89 183.778 208.615 184.393C208.346 185.004 208.211 185.722 208.211 186.545C208.211 187.388 208.343 188.122 208.608 188.747C208.878 189.372 209.257 189.857 209.745 190.203C210.237 190.549 210.815 190.722 211.478 190.722C211.913 190.722 212.309 190.646 212.664 190.494C213.019 190.343 213.319 190.125 213.566 189.841C213.812 189.557 213.987 189.216 214.091 188.818H215.767C215.673 189.462 215.438 190.042 215.064 190.558C214.695 191.07 214.205 191.477 213.594 191.78C212.988 192.078 212.283 192.227 211.478 192.227ZM222.792 192.227C221.74 192.227 220.834 191.995 220.071 191.531C219.314 191.062 218.729 190.409 218.317 189.571C217.91 188.728 217.706 187.748 217.706 186.631C217.706 185.513 217.91 184.528 218.317 183.676C218.729 182.819 219.302 182.152 220.036 181.673C220.775 181.19 221.636 180.949 222.621 180.949C223.189 180.949 223.75 181.044 224.304 181.233C224.858 181.422 225.363 181.73 225.817 182.156C226.272 182.578 226.634 183.136 226.904 183.832C227.174 184.528 227.309 185.385 227.309 186.403V187.114H218.9V185.665H225.604C225.604 185.049 225.481 184.5 225.235 184.017C224.993 183.534 224.648 183.153 224.198 182.874C223.753 182.594 223.227 182.455 222.621 182.455C221.953 182.455 221.376 182.62 220.888 182.952C220.405 183.278 220.033 183.705 219.773 184.23C219.513 184.756 219.382 185.319 219.382 185.92V186.886C219.382 187.71 219.525 188.409 219.809 188.982C220.097 189.55 220.498 189.983 221.009 190.281C221.52 190.575 222.114 190.722 222.792 190.722C223.232 190.722 223.63 190.66 223.985 190.537C224.345 190.409 224.655 190.22 224.915 189.969C225.176 189.713 225.377 189.396 225.519 189.017L227.138 189.472C226.968 190.021 226.681 190.504 226.279 190.92C225.876 191.332 225.379 191.654 224.787 191.886C224.195 192.114 223.53 192.227 222.792 192.227ZM231.08 192.114C230.73 192.114 230.429 191.988 230.178 191.737C229.927 191.486 229.801 191.186 229.801 190.835C229.801 190.485 229.927 190.184 230.178 189.933C230.429 189.682 230.73 189.557 231.08 189.557C231.43 189.557 231.731 189.682 231.982 189.933C232.233 190.184 232.358 190.485 232.358 190.835C232.358 191.067 232.299 191.28 232.181 191.474C232.067 191.669 231.913 191.825 231.719 191.943C231.53 192.057 231.317 192.114 231.08 192.114Z" fill="white"/>
<defs>
<linearGradient id="paint0_linear_9_57" x1="344" y1="127.184" x2="1024" y2="122.816" gradientUnits="userSpaceOnUse">
<stop offset="0.02" stop-color="#18182A"/>
<stop offset="0.45" stop-color="#18182A" stop-opacity="0"/>
</linearGradient>
</defs>
</svg>
